<?xml version="1.0" encoding="UTF-8" standalone="no"?>
<!DOCTYPE svg PUBLIC "-//W3C//DTD SVG 1.1//EN"
 "http://www.w3.org/Graphics/SVG/1.1/DTD/svg11.dtd">
<!-- Generated by graphviz version 2.40.1 (20161225.0304)
 -->
<!-- Title: announcements Pages: 1 -->
<svg width="874pt" height="989pt"
 viewBox="0.00 0.00 874.00 989.00" xmlns="http://www.w3.org/2000/svg" xmlns:xlink="http://www.w3.org/1999/xlink">
<g id="graph0" class="graph" transform="scale(1 1) rotate(0) translate(4 985)">
<title>announcements</title>
<polygon fill="#ffffff" stroke="transparent" points="-4,4 -4,-985 870,-985 870,4 -4,4"/>
<!-- announcements -->
<g id="node1" class="node">
<title>announcements</title>
<polygon fill="#efefef" stroke="transparent" points="366,-652.5 366,-687.5 605,-687.5 605,-652.5 366,-652.5"/>
<polygon fill="none" stroke="#000000" points="366,-652.5 366,-687.5 605,-687.5 605,-652.5 366,-652.5"/>
<text text-anchor="start" x="372.848" y="-665.3" font-family="Arial Bold" font-size="18.00" fill="#000000">announcements</text>
<text text-anchor="start" x="500.8982" y="-665.3" font-family="Arial" font-size="14.00" fill="#000000"> </text>
<text text-anchor="start" x="504.7888" y="-665.3" font-family="Arial" font-size="14.00" fill="#666666">[BASE TABLE]</text>
<polygon fill="none" stroke="#000000" points="366,-622.5 366,-652.5 605,-652.5 605,-622.5 366,-622.5"/>
<text text-anchor="start" x="373" y="-633.9" font-family="Arial" font-size="14.00" fill="#000000">id </text>
<text text-anchor="start" x="387.7798" y="-633.9" font-family="Arial" font-size="14.00" fill="#666666">[char(26)]</text>
<polygon fill="none" stroke="#000000" points="366,-592.5 366,-622.5 605,-622.5 605,-592.5 366,-592.5"/>
<text text-anchor="start" x="373" y="-603.9" font-family="Arial" font-size="14.00" fill="#000000">course_id </text>
<text text-anchor="start" x="437.5708" y="-603.9" font-family="Arial" font-size="14.00" fill="#666666">[char(26)]</text>
<polygon fill="none" stroke="#000000" points="366,-562.5 366,-592.5 605,-592.5 605,-562.5 366,-562.5"/>
<text text-anchor="start" x="373" y="-573.9" font-family="Arial" font-size="14.00" fill="#000000">title </text>
<text text-anchor="start" x="398.6676" y="-573.9" font-family="Arial" font-size="14.00" fill="#666666">[varchar(255)]</text>
<polygon fill="none" stroke="#000000" points="366,-532.5 366,-562.5 605,-562.5 605,-532.5 366,-532.5"/>
<text text-anchor="start" x="373" y="-543.9" font-family="Arial" font-size="14.00" fill="#000000">message </text>
<text text-anchor="start" x="433.6816" y="-543.9" font-family="Arial" font-size="14.00" fill="#666666">[text]</text>
<polygon fill="none" stroke="#000000" stroke-width="3" points="364,-531.5 364,-689.5 606,-689.5 606,-531.5 364,-531.5"/>
</g>
<!-- courses -->
<g id="node3" class="node">
<title>courses</title>
<polygon fill="#efefef" stroke="transparent" points="258,-372.5 258,-407.5 714,-407.5 714,-372.5 258,-372.5"/>
<polygon fill="none" stroke="#000000" points="258,-372.5 258,-407.5 714,-407.5 714,-372.5 258,-372.5"/>
<text text-anchor="start" x="405.8677" y="-385.3" font-family="Arial Bold" font-size="18.00" fill="#000000">courses</text>
<text text-anchor="start" x="468.8785" y="-385.3" font-family="Arial" font-size="14.00" fill="#000000"> </text>
<text text-anchor="start" x="472.7691" y="-385.3" font-family="Arial" font-size="14.00" fill="#666666">[BASE TABLE]</text>
<polygon fill="none" stroke="#000000" points="258,-342.5 258,-372.5 714,-372.5 714,-342.5 258,-342.5"/>
<text text-anchor="start" x="265" y="-353.9" font-family="Arial" font-size="14.00" fill="#000000">id </text>
<text text-anchor="start" x="279.7798" y="-353.9" font-family="Arial" font-size="14.00" fill="#666666">[char(26)]</text>
<polygon fill="none" stroke="#000000" points="258,-312.5 258,-342.5 714,-342.5 714,-312.5 258,-312.5"/>
<text text-anchor="start" x="265" y="-323.9" font-family="Arial" font-size="14.00" fill="#000000">code </text>
<text text-anchor="start" x="299.2384" y="-323.9" font-family="Arial" font-size="14.00" fill="#666666">[varchar(255)]</text>
<polygon fill="none" stroke="#000000" points="258,-282.5 258,-312.5 714,-312.5 714,-282.5 258,-282.5"/>
<text text-anchor="start" x="265" y="-293.9" font-family="Arial" font-size="14.00" fill="#000000">type </text>
<text text-anchor="start" x="295.3464" y="-293.9" font-family="Arial" font-size="14.00" fill="#666666">[enum(&#39;liberal&#45;arts&#39;,&#39;major&#45;subjects&#39;)]</text>
<polygon fill="none" stroke="#000000" points="258,-252.5 258,-282.5 714,-282.5 714,-252.5 258,-252.5"/>
<text text-anchor="start" x="265" y="-263.9" font-family="Arial" font-size="14.00" fill="#000000">name </text>
<text text-anchor="start" x="303.899" y="-263.9" font-family="Arial" font-size="14.00" fill="#666666">[varchar(255)]</text>
<polygon fill="none" stroke="#000000" points="258,-222.5 258,-252.5 714,-252.5 714,-222.5 258,-222.5"/>
<text text-anchor="start" x="265" y="-233.9" font-family="Arial" font-size="14.00" fill="#000000">description </text>
<text text-anchor="start" x="336.568" y="-233.9" font-family="Arial" font-size="14.00" fill="#666666">[text]</text>
<polygon fill="none" stroke="#000000" points="258,-192.5 258,-222.5 714,-222.5 714,-192.5 258,-192.5"/>
<text text-anchor="start" x="265" y="-203.9" font-family="Arial" font-size="14.00" fill="#000000">credit </text>
<text text-anchor="start" x="303.1136" y="-203.9" font-family="Arial" font-size="14.00" fill="#666666">[tinyint unsigned]</text>
<polygon fill="none" stroke="#000000" points="258,-162.5 258,-192.5 714,-192.5 714,-162.5 258,-162.5"/>
<text text-anchor="start" x="265" y="-173.9" font-family="Arial" font-size="14.00" fill="#000000">period </text>
<text text-anchor="start" x="307.7882" y="-173.9" font-family="Arial" font-size="14.00" fill="#666666">[tinyint unsigned]</text>
<polygon fill="none" stroke="#000000" points="258,-132.5 258,-162.5 714,-162.5 714,-132.5 258,-132.5"/>
<text text-anchor="start" x="264.758" y="-143.9" font-family="Arial" font-size="14.00" fill="#000000">day_of_week </text>
<text text-anchor="start" x="351.124" y="-143.9" font-family="Arial" font-size="14.00" fill="#666666">[enum(&#39;monday&#39;,&#39;tuesday&#39;,&#39;wednesday&#39;,&#39;thursday&#39;,&#39;friday&#39;)]</text>
<polygon fill="none" stroke="#000000" points="258,-102.5 258,-132.5 714,-132.5 714,-102.5 258,-102.5"/>
<text text-anchor="start" x="265" y="-113.9" font-family="Arial" font-size="14.00" fill="#000000">teacher_id </text>
<text text-anchor="start" x="334.244" y="-113.9" font-family="Arial" font-size="14.00" fill="#666666">[char(26)]</text>
<polygon fill="none" stroke="#000000" points="258,-72.5 258,-102.5 714,-102.5 714,-72.5 258,-72.5"/>
<text text-anchor="start" x="265" y="-83.9" font-family="Arial" font-size="14.00" fill="#000000">keywords </text>
<text text-anchor="start" x="328.0056" y="-83.9" font-family="Arial" font-size="14.00" fill="#666666">[text]</text>
<polygon fill="none" stroke="#000000" points="258,-42.5 258,-72.5 714,-72.5 714,-42.5 258,-42.5"/>
<text text-anchor="start" x="265" y="-53.9" font-family="Arial" font-size="14.00" fill="#000000">status </text>
<text text-anchor="start" x="306.237" y="-53.9" font-family="Arial" font-size="14.00" fill="#666666">[enum(&#39;registration&#39;,&#39;in&#45;progress&#39;,&#39;closed&#39;)]</text>
</g>
<!-- announcements&#45;&gt;courses -->
<g id="edge2" class="edge">
<title>announcements:course_id&#45;&gt;courses:id</title>
<path fill="none" stroke="#000000" d="M615.0012,-606.4072C656.0517,-596.6548 638.4109,-524.0564 605,-487 553.087,-429.4226 309.913,-508.5774 258,-451 230.1732,-420.1369 216.4444,-357.5 258,-357.5"/>
<polygon fill="#000000" stroke="#000000" points="614.9408,-606.4137 604.5112,-603.0266 609.9704,-606.9568 605,-607.5 605,-607.5 605,-607.5 609.9704,-606.9568 605.4888,-611.9734 614.9408,-606.4137 614.9408,-606.4137"/>
<text text-anchor="start" x="612.386" y="-617.5" font-family="Arial" font-size="10.00" fill="#000000">FOREIGN KEY (course_id) REFERENCES courses (id)</text>
</g>
<!-- unread_announcements -->
<g id="node2" class="node">
<title>unread_announcements</title>
<polygon fill="#efefef" stroke="transparent" points="333,-902.5 333,-937.5 638,-937.5 638,-902.5 333,-902.5"/>
<polygon fill="none" stroke="#000000" points="333,-902.5 333,-937.5 638,-937.5 638,-902.5 333,-902.5"/>
<text text-anchor="start" x="339.8333" y="-915.3" font-family="Arial Bold" font-size="18.00" fill="#000000">unread_announcements</text>
<text text-anchor="start" x="533.9129" y="-915.3" font-family="Arial" font-size="14.00" fill="#000000"> </text>
<text text-anchor="start" x="537.8035" y="-915.3" font-family="Arial" font-size="14.00" fill="#666666">[BASE TABLE]</text>
<polygon fill="none" stroke="#000000" points="333,-872.5 333,-902.5 638,-902.5 638,-872.5 333,-872.5"/>
<text text-anchor="start" x="340" y="-883.9" font-family="Arial" font-size="14.00" fill="#000000">announcement_id </text>
<text text-anchor="start" x="455.157" y="-883.9" font-family="Arial" font-size="14.00" fill="#666666">[char(26)]</text>
<polygon fill="none" stroke="#000000" points="333,-842.5 333,-872.5 638,-872.5 638,-842.5 333,-842.5"/>
<text text-anchor="start" x="340" y="-853.9" font-family="Arial" font-size="14.00" fill="#000000">user_id </text>
<text text-anchor="start" x="389.7882" y="-853.9" font-family="Arial" font-size="14.00" fill="#666666">[char(26)]</text>
<polygon fill="none" stroke="#000000" points="333,-812.5 333,-842.5 638,-842.5 638,-812.5 333,-812.5"/>
<text text-anchor="start" x="340" y="-823.9" font-family="Arial" font-size="14.00" fill="#000000">is_deleted </text>
<text text-anchor="start" x="407.69" y="-823.9" font-family="Arial" font-size="14.00" fill="#666666">[tinyint(1)]</text>
</g>
<!-- unread_announcements&#45;&gt;announcements -->
<g id="edge1" class="edge">
<title>unread_announcements:announcement_id&#45;&gt;announcements:id</title>
<path fill="none" stroke="#000000" d="M322.916,-886.7828C223.0648,-872.1191 257.4274,-637.5 366,-637.5"/>
<polygon fill="#000000" stroke="#000000" points="323.0252,-886.7905 332.6807,-891.9887 328.0126,-887.1453 333,-887.5 333,-887.5 333,-887.5 328.0126,-887.1453 333.3193,-883.0113 323.0252,-886.7905 323.0252,-886.7905"/>
<text text-anchor="start" x="7.253" y="-897.5" font-family="Arial" font-size="10.00" fill="#000000">FOREIGN KEY (announcement_id) REFERENCES announcements (id)</text>
</g>
</g>
</svg>
