<?xml version="1.0" encoding="UTF-8" standalone="no"?>
<!DOCTYPE svg PUBLIC "-//W3C//DTD SVG 1.1//EN"
 "http://www.w3.org/Graphics/SVG/1.1/DTD/svg11.dtd">
<!-- Generated by graphviz version 2.40.1 (20161225.0304)
 -->
<!-- Title: classes Pages: 1 -->
<svg width="724pt" height="1079pt"
 viewBox="0.00 0.00 724.00 1079.00" xmlns="http://www.w3.org/2000/svg" xmlns:xlink="http://www.w3.org/1999/xlink">
<g id="graph0" class="graph" transform="scale(1 1) rotate(0) translate(4 1075)">
<title>classes</title>
<polygon fill="#ffffff" stroke="transparent" points="-4,4 -4,-1075 720,-1075 720,4 -4,4"/>
<!-- classes -->
<g id="node1" class="node">
<title>classes</title>
<polygon fill="#efefef" stroke="transparent" points="258,-712.5 258,-747.5 455,-747.5 455,-712.5 258,-712.5"/>
<polygon fill="none" stroke="#000000" points="258,-712.5 258,-747.5 455,-747.5 455,-712.5 258,-712.5"/>
<text text-anchor="start" x="277.8698" y="-725.3" font-family="Arial Bold" font-size="18.00" fill="#000000">classes</text>
<text text-anchor="start" x="337.8764" y="-725.3" font-family="Arial" font-size="14.00" fill="#000000"> </text>
<text text-anchor="start" x="341.767" y="-725.3" font-family="Arial" font-size="14.00" fill="#666666">[BASE TABLE]</text>
<polygon fill="none" stroke="#000000" points="258,-682.5 258,-712.5 455,-712.5 455,-682.5 258,-682.5"/>
<text text-anchor="start" x="265" y="-693.9" font-family="Arial" font-size="14.00" fill="#000000">id </text>
<text text-anchor="start" x="279.7798" y="-693.9" font-family="Arial" font-size="14.00" fill="#666666">[char(26)]</text>
<polygon fill="none" stroke="#000000" points="258,-652.5 258,-682.5 455,-682.5 455,-652.5 258,-652.5"/>
<text text-anchor="start" x="265" y="-663.9" font-family="Arial" font-size="14.00" fill="#000000">course_id </text>
<text text-anchor="start" x="329.5708" y="-663.9" font-family="Arial" font-size="14.00" fill="#666666">[char(26)]</text>
<polygon fill="none" stroke="#000000" points="258,-622.5 258,-652.5 455,-652.5 455,-622.5 258,-622.5"/>
<text text-anchor="start" x="265" y="-633.9" font-family="Arial" font-size="14.00" fill="#000000">part </text>
<text text-anchor="start" x="293.007" y="-633.9" font-family="Arial" font-size="14.00" fill="#666666">[tinyint unsigned]</text>
<polygon fill="none" stroke="#000000" points="258,-592.5 258,-622.5 455,-622.5 455,-592.5 258,-592.5"/>
<text text-anchor="start" x="265" y="-603.9" font-family="Arial" font-size="14.00" fill="#000000">title </text>
<text text-anchor="start" x="290.6676" y="-603.9" font-family="Arial" font-size="14.00" fill="#666666">[varchar(255)]</text>
<polygon fill="none" stroke="#000000" points="258,-562.5 258,-592.5 455,-592.5 455,-562.5 258,-562.5"/>
<text text-anchor="start" x="265" y="-573.9" font-family="Arial" font-size="14.00" fill="#000000">description </text>
<text text-anchor="start" x="336.568" y="-573.9" font-family="Arial" font-size="14.00" fill="#666666">[text]</text>
<polygon fill="none" stroke="#000000" points="258,-532.5 258,-562.5 455,-562.5 455,-532.5 258,-532.5"/>
<text text-anchor="start" x="264.7118" y="-543.9" font-family="Arial" font-size="14.00" fill="#000000">submission_closed </text>
<text text-anchor="start" x="386.8436" y="-543.9" font-family="Arial" font-size="14.00" fill="#666666">[tinyint(1)]</text>
<polygon fill="none" stroke="#000000" stroke-width="3" points="256,-531.5 256,-749.5 456,-749.5 456,-531.5 256,-531.5"/>
</g>
<!-- courses -->
<g id="node3" class="node">
<title>courses</title>
<polygon fill="#efefef" stroke="transparent" points="129,-372.5 129,-407.5 585,-407.5 585,-372.5 129,-372.5"/>
<polygon fill="none" stroke="#000000" points="129,-372.5 129,-407.5 585,-407.5 585,-372.5 129,-372.5"/>
<text text-anchor="start" x="276.8677" y="-385.3" font-family="Arial Bold" font-size="18.00" fill="#000000">courses</text>
<text text-anchor="start" x="339.8785" y="-385.3" font-family="Arial" font-size="14.00" fill="#000000"> </text>
<text text-anchor="start" x="343.7691" y="-385.3" font-family="Arial" font-size="14.00" fill="#666666">[BASE TABLE]</text>
<polygon fill="none" stroke="#000000" points="129,-342.5 129,-372.5 585,-372.5 585,-342.5 129,-342.5"/>
<text text-anchor="start" x="136" y="-353.9" font-family="Arial" font-size="14.00" fill="#000000">id </text>
<text text-anchor="start" x="150.7798" y="-353.9" font-family="Arial" font-size="14.00" fill="#666666">[char(26)]</text>
<polygon fill="none" stroke="#000000" points="129,-312.5 129,-342.5 585,-342.5 585,-312.5 129,-312.5"/>
<text text-anchor="start" x="136" y="-323.9" font-family="Arial" font-size="14.00" fill="#000000">code </text>
<text text-anchor="start" x="170.2384" y="-323.9" font-family="Arial" font-size="14.00" fill="#666666">[varchar(255)]</text>
<polygon fill="none" stroke="#000000" points="129,-282.5 129,-312.5 585,-312.5 585,-282.5 129,-282.5"/>
<text text-anchor="start" x="136" y="-293.9" font-family="Arial" font-size="14.00" fill="#000000">type </text>
<text text-anchor="start" x="166.3464" y="-293.9" font-family="Arial" font-size="14.00" fill="#666666">[enum(&#39;liberal&#45;arts&#39;,&#39;major&#45;subjects&#39;)]</text>
<polygon fill="none" stroke="#000000" points="129,-252.5 129,-282.5 585,-282.5 585,-252.5 129,-252.5"/>
<text text-anchor="start" x="136" y="-263.9" font-family="Arial" font-size="14.00" fill="#000000">name </text>
<text text-anchor="start" x="174.899" y="-263.9" font-family="Arial" font-size="14.00" fill="#666666">[varchar(255)]</text>
<polygon fill="none" stroke="#000000" points="129,-222.5 129,-252.5 585,-252.5 585,-222.5 129,-222.5"/>
<text text-anchor="start" x="136" y="-233.9" font-family="Arial" font-size="14.00" fill="#000000">description </text>
<text text-anchor="start" x="207.568" y="-233.9" font-family="Arial" font-size="14.00" fill="#666666">[text]</text>
<polygon fill="none" stroke="#000000" points="129,-192.5 129,-222.5 585,-222.5 585,-192.5 129,-192.5"/>
<text text-anchor="start" x="136" y="-203.9" font-family="Arial" font-size="14.00" fill="#000000">credit </text>
<text text-anchor="start" x="174.1136" y="-203.9" font-family="Arial" font-size="14.00" fill="#666666">[tinyint unsigned]</text>
<polygon fill="none" stroke="#000000" points="129,-162.5 129,-192.5 585,-192.5 585,-162.5 129,-162.5"/>
<text text-anchor="start" x="136" y="-173.9" font-family="Arial" font-size="14.00" fill="#000000">period </text>
<text text-anchor="start" x="178.7882" y="-173.9" font-family="Arial" font-size="14.00" fill="#666666">[tinyint unsigned]</text>
<polygon fill="none" stroke="#000000" points="129,-132.5 129,-162.5 585,-162.5 585,-132.5 129,-132.5"/>
<text text-anchor="start" x="135.758" y="-143.9" font-family="Arial" font-size="14.00" fill="#000000">day_of_week </text>
<text text-anchor="start" x="222.124" y="-143.9" font-family="Arial" font-size="14.00" fill="#666666">[enum(&#39;monday&#39;,&#39;tuesday&#39;,&#39;wednesday&#39;,&#39;thursday&#39;,&#39;friday&#39;)]</text>
<polygon fill="none" stroke="#000000" points="129,-102.5 129,-132.5 585,-132.5 585,-102.5 129,-102.5"/>
<text text-anchor="start" x="136" y="-113.9" font-family="Arial" font-size="14.00" fill="#000000">teacher_id </text>
<text text-anchor="start" x="205.244" y="-113.9" font-family="Arial" font-size="14.00" fill="#666666">[char(26)]</text>
<polygon fill="none" stroke="#000000" points="129,-72.5 129,-102.5 585,-102.5 585,-72.5 129,-72.5"/>
<text text-anchor="start" x="136" y="-83.9" font-family="Arial" font-size="14.00" fill="#000000">keywords </text>
<text text-anchor="start" x="199.0056" y="-83.9" font-family="Arial" font-size="14.00" fill="#666666">[text]</text>
<polygon fill="none" stroke="#000000" points="129,-42.5 129,-72.5 585,-72.5 585,-42.5 129,-42.5"/>
<text text-anchor="start" x="136" y="-53.9" font-family="Arial" font-size="14.00" fill="#000000">status </text>
<text text-anchor="start" x="177.237" y="-53.9" font-family="Arial" font-size="14.00" fill="#666666">[enum(&#39;registration&#39;,&#39;in&#45;progress&#39;,&#39;closed&#39;)]</text>
</g>
<!-- classes&#45;&gt;courses -->
<g id="edge2" class="edge">
<title>classes:course_id&#45;&gt;courses:id</title>
<path fill="none" stroke="#000000" d="M465.1712,-666.7855C532.7693,-656.7751 506.1177,-544.0734 455,-487 406.3733,-432.7078 177.6267,-505.2922 129,-451 101.2753,-420.0451 87.4444,-357.5 129,-357.5"/>
<polygon fill="#000000" stroke="#000000" points="464.9754,-666.7992 454.6846,-663.0111 459.9877,-667.1496 455,-667.5 455,-667.5 455,-667.5 459.9877,-667.1496 455.3154,-671.9889 464.9754,-666.7992 464.9754,-666.7992"/>
<text text-anchor="start" x="462.386" y="-677.5" font-family="Arial" font-size="10.00" fill="#000000">FOREIGN KEY (course_id) REFERENCES courses (id)</text>
</g>
<!-- submissions -->
<g id="node2" class="node">
<title>submissions</title>
<polygon fill="#efefef" stroke="transparent" points="252,-992.5 252,-1027.5 462,-1027.5 462,-992.5 252,-992.5"/>
<polygon fill="none" stroke="#000000" points="252,-992.5 252,-1027.5 462,-1027.5 462,-992.5 252,-992.5"/>
<text text-anchor="start" x="258.8704" y="-1005.3" font-family="Arial Bold" font-size="18.00" fill="#000000">submissions</text>
<text text-anchor="start" x="357.8758" y="-1005.3" font-family="Arial" font-size="14.00" fill="#000000"> </text>
<text text-anchor="start" x="361.7664" y="-1005.3" font-family="Arial" font-size="14.00" fill="#666666">[BASE TABLE]</text>
<polygon fill="none" stroke="#000000" points="252,-962.5 252,-992.5 462,-992.5 462,-962.5 252,-962.5"/>
<text text-anchor="start" x="259" y="-973.9" font-family="Arial" font-size="14.00" fill="#000000">user_id </text>
<text text-anchor="start" x="308.7882" y="-973.9" font-family="Arial" font-size="14.00" fill="#666666">[char(26)]</text>
<polygon fill="none" stroke="#000000" points="252,-932.5 252,-962.5 462,-962.5 462,-932.5 252,-932.5"/>
<text text-anchor="start" x="259" y="-943.9" font-family="Arial" font-size="14.00" fill="#000000">class_id </text>
<text text-anchor="start" x="313.4516" y="-943.9" font-family="Arial" font-size="14.00" fill="#666666">[char(26)]</text>
<polygon fill="none" stroke="#000000" points="252,-902.5 252,-932.5 462,-932.5 462,-902.5 252,-902.5"/>
<text text-anchor="start" x="259" y="-913.9" font-family="Arial" font-size="14.00" fill="#000000">file_name </text>
<text text-anchor="start" x="323.568" y="-913.9" font-family="Arial" font-size="14.00" fill="#666666">[varchar(255)]</text>
<polygon fill="none" stroke="#000000" points="252,-872.5 252,-902.5 462,-902.5 462,-872.5 252,-872.5"/>
<text text-anchor="start" x="259" y="-883.9" font-family="Arial" font-size="14.00" fill="#000000">score </text>
<text text-anchor="start" x="297.1164" y="-883.9" font-family="Arial" font-size="14.00" fill="#666666">[tinyint unsigned]</text>
</g>
<!-- submissions&#45;&gt;classes -->
<g id="edge1" class="edge">
<title>submissions:class_id&#45;&gt;classes:id</title>
<path fill="none" stroke="#000000" d="M242.0164,-946.3908C202.4774,-936.7897 220.8107,-867.207 252,-830 310.8641,-759.7785 396.1359,-864.2215 455,-794 482.5523,-761.1317 497.8889,-697.5 455,-697.5"/>
<polygon fill="#000000" stroke="#000000" points="242.0612,-946.3957 251.5031,-951.9725 247.0306,-946.9479 252,-947.5 252,-947.5 252,-947.5 247.0306,-946.9479 252.4969,-943.0275 242.0612,-946.3957 242.0612,-946.3957"/>
<text text-anchor="start" x="6.8345" y="-957.5" font-family="Arial" font-size="10.00" fill="#000000">FOREIGN KEY (class_id) REFERENCES classes (id)</text>
</g>
</g>
</svg>
