<?xml version="1.0" encoding="UTF-8" standalone="no"?>
<!DOCTYPE svg PUBLIC "-//W3C//DTD SVG 1.1//EN"
 "http://www.w3.org/Graphics/SVG/1.1/DTD/svg11.dtd">
<!-- Generated by graphviz version 2.40.1 (20161225.0304)
 -->
<!-- Title: courses Pages: 1 -->
<svg width="957pt" height="1109pt"
 viewBox="0.00 0.00 956.50 1109.00" xmlns="http://www.w3.org/2000/svg" xmlns:xlink="http://www.w3.org/1999/xlink">
<g id="graph0" class="graph" transform="scale(1 1) rotate(0) translate(4 1105)">
<title>courses</title>
<polygon fill="#ffffff" stroke="transparent" points="-4,4 -4,-1105 952.5,-1105 952.5,4 -4,4"/>
<!-- courses -->
<g id="node1" class="node">
<title>courses</title>
<polygon fill="#efefef" stroke="transparent" points="257.5,-682.5 257.5,-717.5 713.5,-717.5 713.5,-682.5 257.5,-682.5"/>
<polygon fill="none" stroke="#000000" points="257.5,-682.5 257.5,-717.5 713.5,-717.5 713.5,-682.5 257.5,-682.5"/>
<text text-anchor="start" x="405.3677" y="-695.3" font-family="Arial Bold" font-size="18.00" fill="#000000">courses</text>
<text text-anchor="start" x="468.3785" y="-695.3" font-family="Arial" font-size="14.00" fill="#000000"> </text>
<text text-anchor="start" x="472.2691" y="-695.3" font-family="Arial" font-size="14.00" fill="#666666">[BASE TABLE]</text>
<polygon fill="none" stroke="#000000" points="257.5,-652.5 257.5,-682.5 713.5,-682.5 713.5,-652.5 257.5,-652.5"/>
<text text-anchor="start" x="264.5" y="-663.9" font-family="Arial" font-size="14.00" fill="#000000">id </text>
<text text-anchor="start" x="279.2798" y="-663.9" font-family="Arial" font-size="14.00" fill="#666666">[char(26)]</text>
<polygon fill="none" stroke="#000000" points="257.5,-622.5 257.5,-652.5 713.5,-652.5 713.5,-622.5 257.5,-622.5"/>
<text text-anchor="start" x="264.5" y="-633.9" font-family="Arial" font-size="14.00" fill="#000000">code </text>
<text text-anchor="start" x="298.7384" y="-633.9" font-family="Arial" font-size="14.00" fill="#666666">[varchar(255)]</text>
<polygon fill="none" stroke="#000000" points="257.5,-592.5 257.5,-622.5 713.5,-622.5 713.5,-592.5 257.5,-592.5"/>
<text text-anchor="start" x="264.5" y="-603.9" font-family="Arial" font-size="14.00" fill="#000000">type </text>
<text text-anchor="start" x="294.8464" y="-603.9" font-family="Arial" font-size="14.00" fill="#666666">[enum(&#39;liberal&#45;arts&#39;,&#39;major&#45;subjects&#39;)]</text>
<polygon fill="none" stroke="#000000" points="257.5,-562.5 257.5,-592.5 713.5,-592.5 713.5,-562.5 257.5,-562.5"/>
<text text-anchor="start" x="264.5" y="-573.9" font-family="Arial" font-size="14.00" fill="#000000">name </text>
<text text-anchor="start" x="303.399" y="-573.9" font-family="Arial" font-size="14.00" fill="#666666">[varchar(255)]</text>
<polygon fill="none" stroke="#000000" points="257.5,-532.5 257.5,-562.5 713.5,-562.5 713.5,-532.5 257.5,-532.5"/>
<text text-anchor="start" x="264.5" y="-543.9" font-family="Arial" font-size="14.00" fill="#000000">description </text>
<text text-anchor="start" x="336.068" y="-543.9" font-family="Arial" font-size="14.00" fill="#666666">[text]</text>
<polygon fill="none" stroke="#000000" points="257.5,-502.5 257.5,-532.5 713.5,-532.5 713.5,-502.5 257.5,-502.5"/>
<text text-anchor="start" x="264.5" y="-513.9" font-family="Arial" font-size="14.00" fill="#000000">credit </text>
<text text-anchor="start" x="302.6136" y="-513.9" font-family="Arial" font-size="14.00" fill="#666666">[tinyint unsigned]</text>
<polygon fill="none" stroke="#000000" points="257.5,-472.5 257.5,-502.5 713.5,-502.5 713.5,-472.5 257.5,-472.5"/>
<text text-anchor="start" x="264.5" y="-483.9" font-family="Arial" font-size="14.00" fill="#000000">period </text>
<text text-anchor="start" x="307.2882" y="-483.9" font-family="Arial" font-size="14.00" fill="#666666">[tinyint unsigned]</text>
<polygon fill="none" stroke="#000000" points="257.5,-442.5 257.5,-472.5 713.5,-472.5 713.5,-442.5 257.5,-442.5"/>
<text text-anchor="start" x="264.258" y="-453.9" font-family="Arial" font-size="14.00" fill="#000000">day_of_week </text>
<text text-anchor="start" x="350.624" y="-453.9" font-family="Arial" font-size="14.00" fill="#666666">[enum(&#39;monday&#39;,&#39;tuesday&#39;,&#39;wednesday&#39;,&#39;thursday&#39;,&#39;friday&#39;)]</text>
<polygon fill="none" stroke="#000000" points="257.5,-412.5 257.5,-442.5 713.5,-442.5 713.5,-412.5 257.5,-412.5"/>
<text text-anchor="start" x="264.5" y="-423.9" font-family="Arial" font-size="14.00" fill="#000000">teacher_id </text>
<text text-anchor="start" x="333.744" y="-423.9" font-family="Arial" font-size="14.00" fill="#666666">[char(26)]</text>
<polygon fill="none" stroke="#000000" points="257.5,-382.5 257.5,-412.5 713.5,-412.5 713.5,-382.5 257.5,-382.5"/>
<text text-anchor="start" x="264.5" y="-393.9" font-family="Arial" font-size="14.00" fill="#000000">keywords </text>
<text text-anchor="start" x="327.5056" y="-393.9" font-family="Arial" font-size="14.00" fill="#666666">[text]</text>
<polygon fill="none" stroke="#000000" points="257.5,-352.5 257.5,-382.5 713.5,-382.5 713.5,-352.5 257.5,-352.5"/>
<text text-anchor="start" x="264.5" y="-363.9" font-family="Arial" font-size="14.00" fill="#000000">status </text>
<text text-anchor="start" x="305.737" y="-363.9" font-family="Arial" font-size="14.00" fill="#666666">[enum(&#39;registration&#39;,&#39;in&#45;progress&#39;,&#39;closed&#39;)]</text>
<polygon fill="none" stroke="#000000" stroke-width="3" points="256,-351.5 256,-719.5 715,-719.5 715,-351.5 256,-351.5"/>
</g>
<!-- users -->
<g id="node5" class="node">
<title>users</title>
<polygon fill="#efefef" stroke="transparent" points="382.5,-192.5 382.5,-227.5 587.5,-227.5 587.5,-192.5 382.5,-192.5"/>
<polygon fill="none" stroke="#000000" points="382.5,-192.5 382.5,-227.5 587.5,-227.5 587.5,-192.5 382.5,-192.5"/>
<text text-anchor="start" x="414.3708" y="-205.3" font-family="Arial Bold" font-size="18.00" fill="#000000">users</text>
<text text-anchor="start" x="458.3754" y="-205.3" font-family="Arial" font-size="14.00" fill="#000000"> </text>
<text text-anchor="start" x="462.266" y="-205.3" font-family="Arial" font-size="14.00" fill="#666666">[BASE TABLE]</text>
<polygon fill="none" stroke="#000000" points="382.5,-162.5 382.5,-192.5 587.5,-192.5 587.5,-162.5 382.5,-162.5"/>
<text text-anchor="start" x="389.5" y="-173.9" font-family="Arial" font-size="14.00" fill="#000000">id </text>
<text text-anchor="start" x="404.2798" y="-173.9" font-family="Arial" font-size="14.00" fill="#666666">[char(26)]</text>
<polygon fill="none" stroke="#000000" points="382.5,-132.5 382.5,-162.5 587.5,-162.5 587.5,-132.5 382.5,-132.5"/>
<text text-anchor="start" x="389.5" y="-143.9" font-family="Arial" font-size="14.00" fill="#000000">code </text>
<text text-anchor="start" x="423.7384" y="-143.9" font-family="Arial" font-size="14.00" fill="#666666">[char(6)]</text>
<polygon fill="none" stroke="#000000" points="382.5,-102.5 382.5,-132.5 587.5,-132.5 587.5,-102.5 382.5,-102.5"/>
<text text-anchor="start" x="389.5" y="-113.9" font-family="Arial" font-size="14.00" fill="#000000">name </text>
<text text-anchor="start" x="428.399" y="-113.9" font-family="Arial" font-size="14.00" fill="#666666">[varchar(255)]</text>
<polygon fill="none" stroke="#000000" points="382.5,-72.5 382.5,-102.5 587.5,-102.5 587.5,-72.5 382.5,-72.5"/>
<text text-anchor="start" x="389.5" y="-83.9" font-family="Arial" font-size="14.00" fill="#000000">hashed_password </text>
<text text-anchor="start" x="506.9838" y="-83.9" font-family="Arial" font-size="14.00" fill="#666666">[binary(60)]</text>
<polygon fill="none" stroke="#000000" points="382.5,-42.5 382.5,-72.5 587.5,-72.5 587.5,-42.5 382.5,-42.5"/>
<text text-anchor="start" x="389.3443" y="-53.9" font-family="Arial" font-size="14.00" fill="#000000">type </text>
<text text-anchor="start" x="419.6907" y="-53.9" font-family="Arial" font-size="14.00" fill="#666666">[enum(&#39;student&#39;,&#39;teacher&#39;)]</text>
</g>
<!-- courses&#45;&gt;users -->
<g id="edge4" class="edge">
<title>courses:teacher_id&#45;&gt;users:id</title>
<path fill="none" stroke="#000000" d="M247.5002,-426.4084C206.4617,-416.6668 224.1872,-344.1446 257.5,-307 306.7526,-252.0822 538.2474,-325.9178 587.5,-271 615.2452,-240.0635 629.0556,-177.5 587.5,-177.5"/>
<polygon fill="#000000" stroke="#000000" points="247.5591,-426.4148 257.0116,-431.9734 252.5295,-426.9574 257.5,-427.5 257.5,-427.5 257.5,-427.5 252.5295,-426.9574 257.9884,-423.0266 247.5591,-426.4148 247.5591,-426.4148"/>
<text text-anchor="start" x="10.4965" y="-437.5" font-family="Arial" font-size="10.00" fill="#000000">FOREIGN KEY (teacher_id) REFERENCES users (id)</text>
</g>
<!-- announcements -->
<g id="node2" class="node">
<title>announcements</title>
<polygon fill="#efefef" stroke="transparent" points="43.5,-992.5 43.5,-1027.5 282.5,-1027.5 282.5,-992.5 43.5,-992.5"/>
<polygon fill="none" stroke="#000000" points="43.5,-992.5 43.5,-1027.5 282.5,-1027.5 282.5,-992.5 43.5,-992.5"/>
<text text-anchor="start" x="50.348" y="-1005.3" font-family="Arial Bold" font-size="18.00" fill="#000000">announcements</text>
<text text-anchor="start" x="178.3982" y="-1005.3" font-family="Arial" font-size="14.00" fill="#000000"> </text>
<text text-anchor="start" x="182.2888" y="-1005.3" font-family="Arial" font-size="14.00" fill="#666666">[BASE TABLE]</text>
<polygon fill="none" stroke="#000000" points="43.5,-962.5 43.5,-992.5 282.5,-992.5 282.5,-962.5 43.5,-962.5"/>
<text text-anchor="start" x="50.5" y="-973.9" font-family="Arial" font-size="14.00" fill="#000000">id </text>
<text text-anchor="start" x="65.2798" y="-973.9" font-family="Arial" font-size="14.00" fill="#666666">[char(26)]</text>
<polygon fill="none" stroke="#000000" points="43.5,-932.5 43.5,-962.5 282.5,-962.5 282.5,-932.5 43.5,-932.5"/>
<text text-anchor="start" x="50.5" y="-943.9" font-family="Arial" font-size="14.00" fill="#000000">course_id </text>
<text text-anchor="start" x="115.0708" y="-943.9" font-family="Arial" font-size="14.00" fill="#666666">[char(26)]</text>
<polygon fill="none" stroke="#000000" points="43.5,-902.5 43.5,-932.5 282.5,-932.5 282.5,-902.5 43.5,-902.5"/>
<text text-anchor="start" x="50.5" y="-913.9" font-family="Arial" font-size="14.00" fill="#000000">title </text>
<text text-anchor="start" x="76.1676" y="-913.9" font-family="Arial" font-size="14.00" fill="#666666">[varchar(255)]</text>
<polygon fill="none" stroke="#000000" points="43.5,-872.5 43.5,-902.5 282.5,-902.5 282.5,-872.5 43.5,-872.5"/>
<text text-anchor="start" x="50.5" y="-883.9" font-family="Arial" font-size="14.00" fill="#000000">message </text>
<text text-anchor="start" x="111.1816" y="-883.9" font-family="Arial" font-size="14.00" fill="#666666">[text]</text>
</g>
<!-- announcements&#45;&gt;courses -->
<g id="edge1" class="edge">
<title>announcements:course_id&#45;&gt;courses:id</title>
<path fill="none" stroke="#000000" d="M292.6095,-946.4402C328.5503,-937.765 291.2051,-877.5562 282.5,-830 276.8521,-799.1455 263.1479,-794.8545 257.5,-764 249.7776,-721.8121 214.6111,-667.5 257.5,-667.5"/>
<polygon fill="#000000" stroke="#000000" points="292.4455,-946.4573 282.0308,-943.0245 287.4728,-946.9787 282.5,-947.5 282.5,-947.5 282.5,-947.5 287.4728,-946.9787 282.9692,-951.9755 292.4455,-946.4573 292.4455,-946.4573"/>
<text text-anchor="start" x="289.886" y="-957.5" font-family="Arial" font-size="10.00" fill="#000000">FOREIGN KEY (course_id) REFERENCES courses (id)</text>
</g>
<!-- classes -->
<g id="node3" class="node">
<title>classes</title>
<polygon fill="#efefef" stroke="transparent" points="386.5,-1022.5 386.5,-1057.5 583.5,-1057.5 583.5,-1022.5 386.5,-1022.5"/>
<polygon fill="none" stroke="#000000" points="386.5,-1022.5 386.5,-1057.5 583.5,-1057.5 583.5,-1022.5 386.5,-1022.5"/>
<text text-anchor="start" x="406.3698" y="-1035.3" font-family="Arial Bold" font-size="18.00" fill="#000000">classes</text>
<text text-anchor="start" x="466.3764" y="-1035.3" font-family="Arial" font-size="14.00" fill="#000000"> </text>
<text text-anchor="start" x="470.267" y="-1035.3" font-family="Arial" font-size="14.00" fill="#666666">[BASE TABLE]</text>
<polygon fill="none" stroke="#000000" points="386.5,-992.5 386.5,-1022.5 583.5,-1022.5 583.5,-992.5 386.5,-992.5"/>
<text text-anchor="start" x="393.5" y="-1003.9" font-family="Arial" font-size="14.00" fill="#000000">id </text>
<text text-anchor="start" x="408.2798" y="-1003.9" font-family="Arial" font-size="14.00" fill="#666666">[char(26)]</text>
<polygon fill="none" stroke="#000000" points="386.5,-962.5 386.5,-992.5 583.5,-992.5 583.5,-962.5 386.5,-962.5"/>
<text text-anchor="start" x="393.5" y="-973.9" font-family="Arial" font-size="14.00" fill="#000000">course_id </text>
<text text-anchor="start" x="458.0708" y="-973.9" font-family="Arial" font-size="14.00" fill="#666666">[char(26)]</text>
<polygon fill="none" stroke="#000000" points="386.5,-932.5 386.5,-962.5 583.5,-962.5 583.5,-932.5 386.5,-932.5"/>
<text text-anchor="start" x="393.5" y="-943.9" font-family="Arial" font-size="14.00" fill="#000000">part </text>
<text text-anchor="start" x="421.507" y="-943.9" font-family="Arial" font-size="14.00" fill="#666666">[tinyint unsigned]</text>
<polygon fill="none" stroke="#000000" points="386.5,-902.5 386.5,-932.5 583.5,-932.5 583.5,-902.5 386.5,-902.5"/>
<text text-anchor="start" x="393.5" y="-913.9" font-family="Arial" font-size="14.00" fill="#000000">title </text>
<text text-anchor="start" x="419.1676" y="-913.9" font-family="Arial" font-size="14.00" fill="#666666">[varchar(255)]</text>
<polygon fill="none" stroke="#000000" points="386.5,-872.5 386.5,-902.5 583.5,-902.5 583.5,-872.5 386.5,-872.5"/>
<text text-anchor="start" x="393.5" y="-883.9" font-family="Arial" font-size="14.00" fill="#000000">description </text>
<text text-anchor="start" x="465.068" y="-883.9" font-family="Arial" font-size="14.00" fill="#666666">[text]</text>
<polygon fill="none" stroke="#000000" points="386.5,-842.5 386.5,-872.5 583.5,-872.5 583.5,-842.5 386.5,-842.5"/>
<text text-anchor="start" x="393.2118" y="-853.9" font-family="Arial" font-size="14.00" fill="#000000">submission_closed </text>
<text text-anchor="start" x="515.3436" y="-853.9" font-family="Arial" font-size="14.00" fill="#666666">[tinyint(1)]</text>
</g>
<!-- classes&#45;&gt;courses -->
<g id="edge2" class="edge">
<title>classes:course_id&#45;&gt;courses:id</title>
<path fill="none" stroke="#000000" d="M593.5021,-976.7974C659.9767,-966.9534 633.7681,-856.1248 583.5,-800 534.8733,-745.7078 306.1267,-818.2922 257.5,-764 228.8857,-732.0519 214.6111,-667.5 257.5,-667.5"/>
<polygon fill="#000000" stroke="#000000" points="593.4754,-976.7992 583.1846,-973.0111 588.4877,-977.1496 583.5,-977.5 583.5,-977.5 583.5,-977.5 588.4877,-977.1496 583.8154,-981.9889 593.4754,-976.7992 593.4754,-976.7992"/>
<text text-anchor="start" x="329.886" y="-987.5" font-family="Arial" font-size="10.00" fill="#000000">FOREIGN KEY (course_id) REFERENCES courses (id)</text>
</g>
<!-- registrations -->
<g id="node4" class="node">
<title>registrations</title>
<polygon fill="#efefef" stroke="transparent" points="687.5,-962.5 687.5,-997.5 896.5,-997.5 896.5,-962.5 687.5,-962.5"/>
<polygon fill="none" stroke="#000000" points="687.5,-962.5 687.5,-997.5 896.5,-997.5 896.5,-962.5 687.5,-962.5"/>
<text text-anchor="start" x="694.369" y="-975.3" font-family="Arial Bold" font-size="18.00" fill="#000000">registrations</text>
<text text-anchor="start" x="792.3772" y="-975.3" font-family="Arial" font-size="14.00" fill="#000000"> </text>
<text text-anchor="start" x="796.2678" y="-975.3" font-family="Arial" font-size="14.00" fill="#666666">[BASE TABLE]</text>
<polygon fill="none" stroke="#000000" points="687.5,-932.5 687.5,-962.5 896.5,-962.5 896.5,-932.5 687.5,-932.5"/>
<text text-anchor="start" x="694.5" y="-943.9" font-family="Arial" font-size="14.00" fill="#000000">course_id </text>
<text text-anchor="start" x="759.0708" y="-943.9" font-family="Arial" font-size="14.00" fill="#666666">[char(26)]</text>
<polygon fill="none" stroke="#000000" points="687.5,-902.5 687.5,-932.5 896.5,-932.5 896.5,-902.5 687.5,-902.5"/>
<text text-anchor="start" x="694.5" y="-913.9" font-family="Arial" font-size="14.00" fill="#000000">user_id </text>
<text text-anchor="start" x="744.2882" y="-913.9" font-family="Arial" font-size="14.00" fill="#666666">[char(26)]</text>
</g>
<!-- registrations&#45;&gt;courses -->
<g id="edge3" class="edge">
<title>registrations:course_id&#45;&gt;courses:id</title>
<path fill="none" stroke="#000000" d="M677.2294,-946.7457C578.8612,-930.8035 834.6962,-667.5 713.5,-667.5"/>
<polygon fill="#000000" stroke="#000000" points="677.5269,-946.7674 687.1704,-951.9879 682.5134,-947.1337 687.5,-947.5 687.5,-947.5 687.5,-947.5 682.5134,-947.1337 687.8296,-943.0121 677.5269,-946.7674 677.5269,-946.7674"/>
<text text-anchor="start" x="694.886" y="-957.5" font-family="Arial" font-size="10.00" fill="#000000">FOREIGN KEY (course_id) REFERENCES courses (id)</text>
</g>
</g>
</svg>
