<?xml version="1.0" encoding="UTF-8" standalone="no"?>
<!DOCTYPE svg PUBLIC "-//W3C//DTD SVG 1.1//EN"
 "http://www.w3.org/Graphics/SVG/1.1/DTD/svg11.dtd">
<!-- Generated by graphviz version 2.40.1 (20161225.0304)
 -->
<!-- Title: registrations Pages: 1 -->
<svg width="860pt" height="682pt"
 viewBox="0.00 0.00 859.50 682.00" xmlns="http://www.w3.org/2000/svg" xmlns:xlink="http://www.w3.org/1999/xlink">
<g id="graph0" class="graph" transform="scale(1 1) rotate(0) translate(4 678)">
<title>registrations</title>
<polygon fill="#ffffff" stroke="transparent" points="-4,4 -4,-678 855.5,-678 855.5,4 -4,4"/>
<!-- registrations -->
<g id="node1" class="node">
<title>registrations</title>
<polygon fill="#efefef" stroke="transparent" points="384,-592.5 384,-627.5 593,-627.5 593,-592.5 384,-592.5"/>
<polygon fill="none" stroke="#000000" points="384,-592.5 384,-627.5 593,-627.5 593,-592.5 384,-592.5"/>
<text text-anchor="start" x="390.869" y="-605.3" font-family="Arial Bold" font-size="18.00" fill="#000000">registrations</text>
<text text-anchor="start" x="488.8772" y="-605.3" font-family="Arial" font-size="14.00" fill="#000000"> </text>
<text text-anchor="start" x="492.7678" y="-605.3" font-family="Arial" font-size="14.00" fill="#666666">[BASE TABLE]</text>
<polygon fill="none" stroke="#000000" points="384,-562.5 384,-592.5 593,-592.5 593,-562.5 384,-562.5"/>
<text text-anchor="start" x="391" y="-573.9" font-family="Arial" font-size="14.00" fill="#000000">course_id </text>
<text text-anchor="start" x="455.5708" y="-573.9" font-family="Arial" font-size="14.00" fill="#666666">[char(26)]</text>
<polygon fill="none" stroke="#000000" points="384,-532.5 384,-562.5 593,-562.5 593,-532.5 384,-532.5"/>
<text text-anchor="start" x="391" y="-543.9" font-family="Arial" font-size="14.00" fill="#000000">user_id </text>
<text text-anchor="start" x="440.7882" y="-543.9" font-family="Arial" font-size="14.00" fill="#666666">[char(26)]</text>
<polygon fill="none" stroke="#000000" stroke-width="3" points="382,-531.5 382,-629.5 594,-629.5 594,-531.5 382,-531.5"/>
</g>
<!-- courses -->
<g id="node2" class="node">
<title>courses</title>
<polygon fill="#efefef" stroke="transparent" points="43,-372.5 43,-407.5 499,-407.5 499,-372.5 43,-372.5"/>
<polygon fill="none" stroke="#000000" points="43,-372.5 43,-407.5 499,-407.5 499,-372.5 43,-372.5"/>
<text text-anchor="start" x="190.8677" y="-385.3" font-family="Arial Bold" font-size="18.00" fill="#000000">courses</text>
<text text-anchor="start" x="253.8785" y="-385.3" font-family="Arial" font-size="14.00" fill="#000000"> </text>
<text text-anchor="start" x="257.7691" y="-385.3" font-family="Arial" font-size="14.00" fill="#666666">[BASE TABLE]</text>
<polygon fill="none" stroke="#000000" points="43,-342.5 43,-372.5 499,-372.5 499,-342.5 43,-342.5"/>
<text text-anchor="start" x="50" y="-353.9" font-family="Arial" font-size="14.00" fill="#000000">id </text>
<text text-anchor="start" x="64.7798" y="-353.9" font-family="Arial" font-size="14.00" fill="#666666">[char(26)]</text>
<polygon fill="none" stroke="#000000" points="43,-312.5 43,-342.5 499,-342.5 499,-312.5 43,-312.5"/>
<text text-anchor="start" x="50" y="-323.9" font-family="Arial" font-size="14.00" fill="#000000">code </text>
<text text-anchor="start" x="84.2384" y="-323.9" font-family="Arial" font-size="14.00" fill="#666666">[varchar(255)]</text>
<polygon fill="none" stroke="#000000" points="43,-282.5 43,-312.5 499,-312.5 499,-282.5 43,-282.5"/>
<text text-anchor="start" x="50" y="-293.9" font-family="Arial" font-size="14.00" fill="#000000">type </text>
<text text-anchor="start" x="80.3464" y="-293.9" font-family="Arial" font-size="14.00" fill="#666666">[enum(&#39;liberal&#45;arts&#39;,&#39;major&#45;subjects&#39;)]</text>
<polygon fill="none" stroke="#000000" points="43,-252.5 43,-282.5 499,-282.5 499,-252.5 43,-252.5"/>
<text text-anchor="start" x="50" y="-263.9" font-family="Arial" font-size="14.00" fill="#000000">name </text>
<text text-anchor="start" x="88.899" y="-263.9" font-family="Arial" font-size="14.00" fill="#666666">[varchar(255)]</text>
<polygon fill="none" stroke="#000000" points="43,-222.5 43,-252.5 499,-252.5 499,-222.5 43,-222.5"/>
<text text-anchor="start" x="50" y="-233.9" font-family="Arial" font-size="14.00" fill="#000000">description </text>
<text text-anchor="start" x="121.568" y="-233.9" font-family="Arial" font-size="14.00" fill="#666666">[text]</text>
<polygon fill="none" stroke="#000000" points="43,-192.5 43,-222.5 499,-222.5 499,-192.5 43,-192.5"/>
<text text-anchor="start" x="50" y="-203.9" font-family="Arial" font-size="14.00" fill="#000000">credit </text>
<text text-anchor="start" x="88.1136" y="-203.9" font-family="Arial" font-size="14.00" fill="#666666">[tinyint unsigned]</text>
<polygon fill="none" stroke="#000000" points="43,-162.5 43,-192.5 499,-192.5 499,-162.5 43,-162.5"/>
<text text-anchor="start" x="50" y="-173.9" font-family="Arial" font-size="14.00" fill="#000000">period </text>
<text text-anchor="start" x="92.7882" y="-173.9" font-family="Arial" font-size="14.00" fill="#666666">[tinyint unsigned]</text>
<polygon fill="none" stroke="#000000" points="43,-132.5 43,-162.5 499,-162.5 499,-132.5 43,-132.5"/>
<text text-anchor="start" x="49.758" y="-143.9" font-family="Arial" font-size="14.00" fill="#000000">day_of_week </text>
<text text-anchor="start" x="136.124" y="-143.9" font-family="Arial" font-size="14.00" fill="#666666">[enum(&#39;monday&#39;,&#39;tuesday&#39;,&#39;wednesday&#39;,&#39;thursday&#39;,&#39;friday&#39;)]</text>
<polygon fill="none" stroke="#000000" points="43,-102.5 43,-132.5 499,-132.5 499,-102.5 43,-102.5"/>
<text text-anchor="start" x="50" y="-113.9" font-family="Arial" font-size="14.00" fill="#000000">teacher_id </text>
<text text-anchor="start" x="119.244" y="-113.9" font-family="Arial" font-size="14.00" fill="#666666">[char(26)]</text>
<polygon fill="none" stroke="#000000" points="43,-72.5 43,-102.5 499,-102.5 499,-72.5 43,-72.5"/>
<text text-anchor="start" x="50" y="-83.9" font-family="Arial" font-size="14.00" fill="#000000">keywords </text>
<text text-anchor="start" x="113.0056" y="-83.9" font-family="Arial" font-size="14.00" fill="#666666">[text]</text>
<polygon fill="none" stroke="#000000" points="43,-42.5 43,-72.5 499,-72.5 499,-42.5 43,-42.5"/>
<text text-anchor="start" x="50" y="-53.9" font-family="Arial" font-size="14.00" fill="#000000">status </text>
<text text-anchor="start" x="91.237" y="-53.9" font-family="Arial" font-size="14.00" fill="#666666">[enum(&#39;registration&#39;,&#39;in&#45;progress&#39;,&#39;closed&#39;)]</text>
</g>
<!-- registrations&#45;&gt;courses -->
<g id="edge1" class="edge">
<title>registrations:course_id&#45;&gt;courses:id</title>
<path fill="none" stroke="#000000" d="M373.7904,-575.9161C347.0526,-566.3997 362.5088,-516.2473 384,-487 415.713,-443.8418 467.287,-494.1582 499,-451 523.6066,-417.513 540.5556,-357.5 499,-357.5"/>
<polygon fill="#000000" stroke="#000000" points="374.1182,-575.9669 383.3101,-581.9468 379.0591,-576.7334 384,-577.5 384,-577.5 384,-577.5 379.0591,-576.7334 384.6899,-573.0532 374.1182,-575.9669 374.1182,-575.9669"/>
<text text-anchor="start" x="130.386" y="-587.5" font-family="Arial" font-size="10.00" fill="#000000">FOREIGN KEY (course_id) REFERENCES courses (id)</text>
</g>
<!-- users -->
<g id="node3" class="node">
<title>users</title>
<polygon fill="#efefef" stroke="transparent" points="604,-282.5 604,-317.5 809,-317.5 809,-282.5 604,-282.5"/>
<polygon fill="none" stroke="#000000" points="604,-282.5 604,-317.5 809,-317.5 809,-282.5 604,-282.5"/>
<text text-anchor="start" x="635.8708" y="-295.3" font-family="Arial Bold" font-size="18.00" fill="#000000">users</text>
<text text-anchor="start" x="679.8754" y="-295.3" font-family="Arial" font-size="14.00" fill="#000000"> </text>
<text text-anchor="start" x="683.766" y="-295.3" font-family="Arial" font-size="14.00" fill="#666666">[BASE TABLE]</text>
<polygon fill="none" stroke="#000000" points="604,-252.5 604,-282.5 809,-282.5 809,-252.5 604,-252.5"/>
<text text-anchor="start" x="611" y="-263.9" font-family="Arial" font-size="14.00" fill="#000000">id </text>
<text text-anchor="start" x="625.7798" y="-263.9" font-family="Arial" font-size="14.00" fill="#666666">[char(26)]</text>
<polygon fill="none" stroke="#000000" points="604,-222.5 604,-252.5 809,-252.5 809,-222.5 604,-222.5"/>
<text text-anchor="start" x="611" y="-233.9" font-family="Arial" font-size="14.00" fill="#000000">code </text>
<text text-anchor="start" x="645.2384" y="-233.9" font-family="Arial" font-size="14.00" fill="#666666">[char(6)]</text>
<polygon fill="none" stroke="#000000" points="604,-192.5 604,-222.5 809,-222.5 809,-192.5 604,-192.5"/>
<text text-anchor="start" x="611" y="-203.9" font-family="Arial" font-size="14.00" fill="#000000">name </text>
<text text-anchor="start" x="649.899" y="-203.9" font-family="Arial" font-size="14.00" fill="#666666">[varchar(255)]</text>
<polygon fill="none" stroke="#000000" points="604,-162.5 604,-192.5 809,-192.5 809,-162.5 604,-162.5"/>
<text text-anchor="start" x="611" y="-173.9" font-family="Arial" font-size="14.00" fill="#000000">hashed_password </text>
<text text-anchor="start" x="728.4838" y="-173.9" font-family="Arial" font-size="14.00" fill="#666666">[binary(60)]</text>
<polygon fill="none" stroke="#000000" points="604,-132.5 604,-162.5 809,-162.5 809,-132.5 604,-132.5"/>
<text text-anchor="start" x="610.8443" y="-143.9" font-family="Arial" font-size="14.00" fill="#000000">type </text>
<text text-anchor="start" x="641.1907" y="-143.9" font-family="Arial" font-size="14.00" fill="#666666">[enum(&#39;student&#39;,&#39;teacher&#39;)]</text>
</g>
<!-- registrations&#45;&gt;users -->
<g id="edge2" class="edge">
<title>registrations:user_id&#45;&gt;users:id</title>
<path fill="none" stroke="#000000" d="M603.0305,-546.7931C703.9016,-531.3341 483.1082,-267.5 604,-267.5"/>
<polygon fill="#000000" stroke="#000000" points="602.9753,-546.7969 592.6836,-543.0111 597.9876,-547.1485 593,-547.5 593,-547.5 593,-547.5 597.9876,-547.1485 593.3164,-551.9889 602.9753,-546.7969 602.9753,-546.7969"/>
<text text-anchor="start" x="599.945" y="-557.5" font-family="Arial" font-size="10.00" fill="#000000">FOREIGN KEY (user_id) REFERENCES users (id)</text>
</g>
</g>
</svg>
