<?xml version="1.0" encoding="UTF-8" standalone="no"?>
<!DOCTYPE svg PUBLIC "-//W3C//DTD SVG 1.1//EN"
 "http://www.w3.org/Graphics/SVG/1.1/DTD/svg11.dtd">
<!-- Generated by graphviz version 2.40.1 (20161225.0304)
 -->
<!-- Title: isucholar Pages: 1 -->
<svg width="1425pt" height="1380pt"
 viewBox="0.00 0.00 1425.00 1380.00" xmlns="http://www.w3.org/2000/svg" xmlns:xlink="http://www.w3.org/1999/xlink">
<g id="graph0" class="graph" transform="scale(1 1) rotate(0) translate(4 1376)">
<title>isucholar</title>
<polygon fill="#ffffff" stroke="transparent" points="-4,4 -4,-1376 1421,-1376 1421,4 -4,4"/>
<!-- announcements -->
<g id="node1" class="node">
<title>announcements</title>
<polygon fill="#efefef" stroke="transparent" points="810,-986.5 810,-1021.5 1049,-1021.5 1049,-986.5 810,-986.5"/>
<polygon fill="none" stroke="#000000" points="810,-986.5 810,-1021.5 1049,-1021.5 1049,-986.5 810,-986.5"/>
<text text-anchor="start" x="816.848" y="-999.3" font-family="Arial Bold" font-size="18.00" fill="#000000">announcements</text>
<text text-anchor="start" x="944.8982" y="-999.3" font-family="Arial" font-size="14.00" fill="#000000"> </text>
<text text-anchor="start" x="948.7888" y="-999.3" font-family="Arial" font-size="14.00" fill="#666666">[BASE TABLE]</text>
<polygon fill="none" stroke="#000000" points="810,-956.5 810,-986.5 1049,-986.5 1049,-956.5 810,-956.5"/>
<text text-anchor="start" x="817" y="-967.9" font-family="Arial" font-size="14.00" fill="#000000">id </text>
<text text-anchor="start" x="831.7798" y="-967.9" font-family="Arial" font-size="14.00" fill="#666666">[char(26)]</text>
<polygon fill="none" stroke="#000000" points="810,-926.5 810,-956.5 1049,-956.5 1049,-926.5 810,-926.5"/>
<text text-anchor="start" x="817" y="-937.9" font-family="Arial" font-size="14.00" fill="#000000">course_id </text>
<text text-anchor="start" x="881.5708" y="-937.9" font-family="Arial" font-size="14.00" fill="#666666">[char(26)]</text>
<polygon fill="none" stroke="#000000" points="810,-896.5 810,-926.5 1049,-926.5 1049,-896.5 810,-896.5"/>
<text text-anchor="start" x="817" y="-907.9" font-family="Arial" font-size="14.00" fill="#000000">title </text>
<text text-anchor="start" x="842.6676" y="-907.9" font-family="Arial" font-size="14.00" fill="#666666">[varchar(255)]</text>
<polygon fill="none" stroke="#000000" points="810,-866.5 810,-896.5 1049,-896.5 1049,-866.5 810,-866.5"/>
<text text-anchor="start" x="817" y="-877.9" font-family="Arial" font-size="14.00" fill="#000000">message </text>
<text text-anchor="start" x="877.6816" y="-877.9" font-family="Arial" font-size="14.00" fill="#666666">[text]</text>
</g>
<!-- courses -->
<g id="node3" class="node">
<title>courses</title>
<polygon fill="#efefef" stroke="transparent" points="376,-679.5 376,-714.5 832,-714.5 832,-679.5 376,-679.5"/>
<polygon fill="none" stroke="#000000" points="376,-679.5 376,-714.5 832,-714.5 832,-679.5 376,-679.5"/>
<text text-anchor="start" x="523.8677" y="-692.3" font-family="Arial Bold" font-size="18.00" fill="#000000">courses</text>
<text text-anchor="start" x="586.8785" y="-692.3" font-family="Arial" font-size="14.00" fill="#000000"> </text>
<text text-anchor="start" x="590.7691" y="-692.3" font-family="Arial" font-size="14.00" fill="#666666">[BASE TABLE]</text>
<polygon fill="none" stroke="#000000" points="376,-649.5 376,-679.5 832,-679.5 832,-649.5 376,-649.5"/>
<text text-anchor="start" x="383" y="-660.9" font-family="Arial" font-size="14.00" fill="#000000">id </text>
<text text-anchor="start" x="397.7798" y="-660.9" font-family="Arial" font-size="14.00" fill="#666666">[char(26)]</text>
<polygon fill="none" stroke="#000000" points="376,-619.5 376,-649.5 832,-649.5 832,-619.5 376,-619.5"/>
<text text-anchor="start" x="383" y="-630.9" font-family="Arial" font-size="14.00" fill="#000000">code </text>
<text text-anchor="start" x="417.2384" y="-630.9" font-family="Arial" font-size="14.00" fill="#666666">[varchar(255)]</text>
<polygon fill="none" stroke="#000000" points="376,-589.5 376,-619.5 832,-619.5 832,-589.5 376,-589.5"/>
<text text-anchor="start" x="383" y="-600.9" font-family="Arial" font-size="14.00" fill="#000000">type </text>
<text text-anchor="start" x="413.3464" y="-600.9" font-family="Arial" font-size="14.00" fill="#666666">[enum(&#39;liberal&#45;arts&#39;,&#39;major&#45;subjects&#39;)]</text>
<polygon fill="none" stroke="#000000" points="376,-559.5 376,-589.5 832,-589.5 832,-559.5 376,-559.5"/>
<text text-anchor="start" x="383" y="-570.9" font-family="Arial" font-size="14.00" fill="#000000">name </text>
<text text-anchor="start" x="421.899" y="-570.9" font-family="Arial" font-size="14.00" fill="#666666">[varchar(255)]</text>
<polygon fill="none" stroke="#000000" points="376,-529.5 376,-559.5 832,-559.5 832,-529.5 376,-529.5"/>
<text text-anchor="start" x="383" y="-540.9" font-family="Arial" font-size="14.00" fill="#000000">description </text>
<text text-anchor="start" x="454.568" y="-540.9" font-family="Arial" font-size="14.00" fill="#666666">[text]</text>
<polygon fill="none" stroke="#000000" points="376,-499.5 376,-529.5 832,-529.5 832,-499.5 376,-499.5"/>
<text text-anchor="start" x="383" y="-510.9" font-family="Arial" font-size="14.00" fill="#000000">credit </text>
<text text-anchor="start" x="421.1136" y="-510.9" font-family="Arial" font-size="14.00" fill="#666666">[tinyint unsigned]</text>
<polygon fill="none" stroke="#000000" points="376,-469.5 376,-499.5 832,-499.5 832,-469.5 376,-469.5"/>
<text text-anchor="start" x="383" y="-480.9" font-family="Arial" font-size="14.00" fill="#000000">period </text>
<text text-anchor="start" x="425.7882" y="-480.9" font-family="Arial" font-size="14.00" fill="#666666">[tinyint unsigned]</text>
<polygon fill="none" stroke="#000000" points="376,-439.5 376,-469.5 832,-469.5 832,-439.5 376,-439.5"/>
<text text-anchor="start" x="382.758" y="-450.9" font-family="Arial" font-size="14.00" fill="#000000">day_of_week </text>
<text text-anchor="start" x="469.124" y="-450.9" font-family="Arial" font-size="14.00" fill="#666666">[enum(&#39;monday&#39;,&#39;tuesday&#39;,&#39;wednesday&#39;,&#39;thursday&#39;,&#39;friday&#39;)]</text>
<polygon fill="none" stroke="#000000" points="376,-409.5 376,-439.5 832,-439.5 832,-409.5 376,-409.5"/>
<text text-anchor="start" x="383" y="-420.9" font-family="Arial" font-size="14.00" fill="#000000">teacher_id </text>
<text text-anchor="start" x="452.244" y="-420.9" font-family="Arial" font-size="14.00" fill="#666666">[char(26)]</text>
<polygon fill="none" stroke="#000000" points="376,-379.5 376,-409.5 832,-409.5 832,-379.5 376,-379.5"/>
<text text-anchor="start" x="383" y="-390.9" font-family="Arial" font-size="14.00" fill="#000000">keywords </text>
<text text-anchor="start" x="446.0056" y="-390.9" font-family="Arial" font-size="14.00" fill="#666666">[text]</text>
<polygon fill="none" stroke="#000000" points="376,-349.5 376,-379.5 832,-379.5 832,-349.5 376,-349.5"/>
<text text-anchor="start" x="383" y="-360.9" font-family="Arial" font-size="14.00" fill="#000000">status </text>
<text text-anchor="start" x="424.237" y="-360.9" font-family="Arial" font-size="14.00" fill="#666666">[enum(&#39;registration&#39;,&#39;in&#45;progress&#39;,&#39;closed&#39;)]</text>
</g>
<!-- announcements&#45;&gt;courses -->
<g id="edge1" class="edge">
<title>announcements:course_id&#45;&gt;courses:id</title>
<path fill="none" stroke="#000000" d="M799.9063,-940.443C764.0923,-931.7896 802.2558,-871.7221 810,-824 814.9528,-793.4792 827.0472,-788.5208 832,-758 838.6565,-716.981 873.5556,-664.5 832,-664.5"/>
<polygon fill="#000000" stroke="#000000" points="800.0544,-940.4584 809.5313,-945.9755 805.0272,-940.9792 810,-941.5 810,-941.5 810,-941.5 805.0272,-940.9792 810.4687,-937.0245 800.0544,-940.4584 800.0544,-940.4584"/>
<text text-anchor="start" x="817.386" y="-951.5" font-family="Arial" font-size="10.00" fill="#000000">FOREIGN KEY (course_id) REFERENCES courses (id)</text>
</g>
<!-- classes -->
<g id="node2" class="node">
<title>classes</title>
<polygon fill="#efefef" stroke="transparent" points="509,-1016.5 509,-1051.5 706,-1051.5 706,-1016.5 509,-1016.5"/>
<polygon fill="none" stroke="#000000" points="509,-1016.5 509,-1051.5 706,-1051.5 706,-1016.5 509,-1016.5"/>
<text text-anchor="start" x="528.8698" y="-1029.3" font-family="Arial Bold" font-size="18.00" fill="#000000">classes</text>
<text text-anchor="start" x="588.8764" y="-1029.3" font-family="Arial" font-size="14.00" fill="#000000"> </text>
<text text-anchor="start" x="592.767" y="-1029.3" font-family="Arial" font-size="14.00" fill="#666666">[BASE TABLE]</text>
<polygon fill="none" stroke="#000000" points="509,-986.5 509,-1016.5 706,-1016.5 706,-986.5 509,-986.5"/>
<text text-anchor="start" x="516" y="-997.9" font-family="Arial" font-size="14.00" fill="#000000">id </text>
<text text-anchor="start" x="530.7798" y="-997.9" font-family="Arial" font-size="14.00" fill="#666666">[char(26)]</text>
<polygon fill="none" stroke="#000000" points="509,-956.5 509,-986.5 706,-986.5 706,-956.5 509,-956.5"/>
<text text-anchor="start" x="516" y="-967.9" font-family="Arial" font-size="14.00" fill="#000000">course_id </text>
<text text-anchor="start" x="580.5708" y="-967.9" font-family="Arial" font-size="14.00" fill="#666666">[char(26)]</text>
<polygon fill="none" stroke="#000000" points="509,-926.5 509,-956.5 706,-956.5 706,-926.5 509,-926.5"/>
<text text-anchor="start" x="516" y="-937.9" font-family="Arial" font-size="14.00" fill="#000000">part </text>
<text text-anchor="start" x="544.007" y="-937.9" font-family="Arial" font-size="14.00" fill="#666666">[tinyint unsigned]</text>
<polygon fill="none" stroke="#000000" points="509,-896.5 509,-926.5 706,-926.5 706,-896.5 509,-896.5"/>
<text text-anchor="start" x="516" y="-907.9" font-family="Arial" font-size="14.00" fill="#000000">title </text>
<text text-anchor="start" x="541.6676" y="-907.9" font-family="Arial" font-size="14.00" fill="#666666">[varchar(255)]</text>
<polygon fill="none" stroke="#000000" points="509,-866.5 509,-896.5 706,-896.5 706,-866.5 509,-866.5"/>
<text text-anchor="start" x="516" y="-877.9" font-family="Arial" font-size="14.00" fill="#000000">description </text>
<text text-anchor="start" x="587.568" y="-877.9" font-family="Arial" font-size="14.00" fill="#666666">[text]</text>
<polygon fill="none" stroke="#000000" points="509,-836.5 509,-866.5 706,-866.5 706,-836.5 509,-836.5"/>
<text text-anchor="start" x="515.7118" y="-847.9" font-family="Arial" font-size="14.00" fill="#000000">submission_closed </text>
<text text-anchor="start" x="637.8436" y="-847.9" font-family="Arial" font-size="14.00" fill="#666666">[tinyint(1)]</text>
</g>
<!-- classes&#45;&gt;courses -->
<g id="edge2" class="edge">
<title>classes:course_id&#45;&gt;courses:id</title>
<path fill="none" stroke="#000000" d="M498.9981,-970.7975C432.5259,-960.9557 458.7603,-850.1502 509,-794 605.3148,-686.354 735.6852,-865.646 832,-758 859.709,-727.0311 873.5556,-664.5 832,-664.5"/>
<polygon fill="#000000" stroke="#000000" points="499.0246,-970.7993 508.6847,-975.9889 504.0123,-971.1497 509,-971.5 509,-971.5 509,-971.5 504.0123,-971.1497 509.3153,-967.0111 499.0246,-970.7993 499.0246,-970.7993"/>
<text text-anchor="start" x="320.636" y="-955.5" font-family="Arial" font-size="10.00" fill="#000000">FOREIGN KEY (course_id) REFERENCES courses (id)</text>
</g>
<!-- users -->
<g id="node7" class="node">
<title>users</title>
<polygon fill="#efefef" stroke="transparent" points="353,-192.5 353,-227.5 558,-227.5 558,-192.5 353,-192.5"/>
<polygon fill="none" stroke="#000000" points="353,-192.5 353,-227.5 558,-227.5 558,-192.5 353,-192.5"/>
<text text-anchor="start" x="384.8708" y="-205.3" font-family="Arial Bold" font-size="18.00" fill="#000000">users</text>
<text text-anchor="start" x="428.8754" y="-205.3" font-family="Arial" font-size="14.00" fill="#000000"> </text>
<text text-anchor="start" x="432.766" y="-205.3" font-family="Arial" font-size="14.00" fill="#666666">[BASE TABLE]</text>
<polygon fill="none" stroke="#000000" points="353,-162.5 353,-192.5 558,-192.5 558,-162.5 353,-162.5"/>
<text text-anchor="start" x="360" y="-173.9" font-family="Arial" font-size="14.00" fill="#000000">id </text>
<text text-anchor="start" x="374.7798" y="-173.9" font-family="Arial" font-size="14.00" fill="#666666">[char(26)]</text>
<polygon fill="none" stroke="#000000" points="353,-132.5 353,-162.5 558,-162.5 558,-132.5 353,-132.5"/>
<text text-anchor="start" x="360" y="-143.9" font-family="Arial" font-size="14.00" fill="#000000">code </text>
<text text-anchor="start" x="394.2384" y="-143.9" font-family="Arial" font-size="14.00" fill="#666666">[char(6)]</text>
<polygon fill="none" stroke="#000000" points="353,-102.5 353,-132.5 558,-132.5 558,-102.5 353,-102.5"/>
<text text-anchor="start" x="360" y="-113.9" font-family="Arial" font-size="14.00" fill="#000000">name </text>
<text text-anchor="start" x="398.899" y="-113.9" font-family="Arial" font-size="14.00" fill="#666666">[varchar(255)]</text>
<polygon fill="none" stroke="#000000" points="353,-72.5 353,-102.5 558,-102.5 558,-72.5 353,-72.5"/>
<text text-anchor="start" x="360" y="-83.9" font-family="Arial" font-size="14.00" fill="#000000">hashed_password </text>
<text text-anchor="start" x="477.4838" y="-83.9" font-family="Arial" font-size="14.00" fill="#666666">[binary(60)]</text>
<polygon fill="none" stroke="#000000" points="353,-42.5 353,-72.5 558,-72.5 558,-42.5 353,-42.5"/>
<text text-anchor="start" x="359.8443" y="-53.9" font-family="Arial" font-size="14.00" fill="#000000">type </text>
<text text-anchor="start" x="390.1907" y="-53.9" font-family="Arial" font-size="14.00" fill="#666666">[enum(&#39;student&#39;,&#39;teacher&#39;)]</text>
</g>
<!-- courses&#45;&gt;users -->
<g id="edge3" class="edge">
<title>courses:teacher_id&#45;&gt;users:id</title>
<path fill="none" stroke="#000000" d="M366.0219,-423.3954C326.5293,-413.8328 345.1799,-344.5135 376,-307 428.3436,-243.2885 505.6564,-334.7115 558,-271 584.3797,-238.8912 599.5556,-177.5 558,-177.5"/>
<polygon fill="#000000" stroke="#000000" points="366.0607,-423.3996 375.5048,-428.9727 371.0304,-423.9498 376,-424.5 376,-424.5 376,-424.5 371.0304,-423.9498 376.4952,-420.0273 366.0607,-423.3996 366.0607,-423.3996"/>
<text text-anchor="start" x="128.9965" y="-434.5" font-family="Arial" font-size="10.00" fill="#000000">FOREIGN KEY (teacher_id) REFERENCES users (id)</text>
</g>
<!-- registrations -->
<g id="node4" class="node">
<title>registrations</title>
<polygon fill="#efefef" stroke="transparent" points="196,-956.5 196,-991.5 405,-991.5 405,-956.5 196,-956.5"/>
<polygon fill="none" stroke="#000000" points="196,-956.5 196,-991.5 405,-991.5 405,-956.5 196,-956.5"/>
<text text-anchor="start" x="202.869" y="-969.3" font-family="Arial Bold" font-size="18.00" fill="#000000">registrations</text>
<text text-anchor="start" x="300.8772" y="-969.3" font-family="Arial" font-size="14.00" fill="#000000"> </text>
<text text-anchor="start" x="304.7678" y="-969.3" font-family="Arial" font-size="14.00" fill="#666666">[BASE TABLE]</text>
<polygon fill="none" stroke="#000000" points="196,-926.5 196,-956.5 405,-956.5 405,-926.5 196,-926.5"/>
<text text-anchor="start" x="203" y="-937.9" font-family="Arial" font-size="14.00" fill="#000000">course_id </text>
<text text-anchor="start" x="267.5708" y="-937.9" font-family="Arial" font-size="14.00" fill="#666666">[char(26)]</text>
<polygon fill="none" stroke="#000000" points="196,-896.5 196,-926.5 405,-926.5 405,-896.5 196,-896.5"/>
<text text-anchor="start" x="203" y="-907.9" font-family="Arial" font-size="14.00" fill="#000000">user_id </text>
<text text-anchor="start" x="252.7882" y="-907.9" font-family="Arial" font-size="14.00" fill="#666666">[char(26)]</text>
</g>
<!-- registrations&#45;&gt;courses -->
<g id="edge4" class="edge">
<title>registrations:course_id&#45;&gt;courses:id</title>
<path fill="none" stroke="#000000" d="M415.1636,-940.7538C512.4056,-924.9824 255.9634,-664.5 376,-664.5"/>
<polygon fill="#000000" stroke="#000000" points="414.9732,-940.7677 404.6704,-937.0121 409.9866,-941.1338 405,-941.5 405,-941.5 405,-941.5 409.9866,-941.1338 405.3296,-945.9879 414.9732,-940.7677 414.9732,-940.7677"/>
<text text-anchor="start" x="151.386" y="-925.5" font-family="Arial" font-size="10.00" fill="#000000">FOREIGN KEY (course_id) REFERENCES courses (id)</text>
</g>
<!-- registrations&#45;&gt;users -->
<g id="edge5" class="edge">
<title>registrations:user_id&#45;&gt;users:id</title>
<path fill="none" stroke="#000000" d="M300.9082,-886.1484C295.3017,-567.5919 36.0515,-177.5 353,-177.5"/>
<polygon fill="#000000" stroke="#000000" points="300.9112,-886.5004 296.5002,-896.54 300.9556,-891.5002 301,-896.5 301,-896.5 301,-896.5 300.9556,-891.5002 305.4998,-896.46 300.9112,-886.5004 300.9112,-886.5004"/>
<text text-anchor="start" x="67.945" y="-880.5" font-family="Arial" font-size="10.00" fill="#000000">FOREIGN KEY (user_id) REFERENCES users (id)</text>
</g>
<!-- submissions -->
<g id="node5" class="node">
<title>submissions</title>
<polygon fill="#efefef" stroke="transparent" points="240,-1293.5 240,-1328.5 450,-1328.5 450,-1293.5 240,-1293.5"/>
<polygon fill="none" stroke="#000000" points="240,-1293.5 240,-1328.5 450,-1328.5 450,-1293.5 240,-1293.5"/>
<text text-anchor="start" x="246.8704" y="-1306.3" font-family="Arial Bold" font-size="18.00" fill="#000000">submissions</text>
<text text-anchor="start" x="345.8758" y="-1306.3" font-family="Arial" font-size="14.00" fill="#000000"> </text>
<text text-anchor="start" x="349.7664" y="-1306.3" font-family="Arial" font-size="14.00" fill="#666666">[BASE TABLE]</text>
<polygon fill="none" stroke="#000000" points="240,-1263.5 240,-1293.5 450,-1293.5 450,-1263.5 240,-1263.5"/>
<text text-anchor="start" x="247" y="-1274.9" font-family="Arial" font-size="14.00" fill="#000000">user_id </text>
<text text-anchor="start" x="296.7882" y="-1274.9" font-family="Arial" font-size="14.00" fill="#666666">[char(26)]</text>
<polygon fill="none" stroke="#000000" points="240,-1233.5 240,-1263.5 450,-1263.5 450,-1233.5 240,-1233.5"/>
<text text-anchor="start" x="247" y="-1244.9" font-family="Arial" font-size="14.00" fill="#000000">class_id </text>
<text text-anchor="start" x="301.4516" y="-1244.9" font-family="Arial" font-size="14.00" fill="#666666">[char(26)]</text>
<polygon fill="none" stroke="#000000" points="240,-1203.5 240,-1233.5 450,-1233.5 450,-1203.5 240,-1203.5"/>
<text text-anchor="start" x="247" y="-1214.9" font-family="Arial" font-size="14.00" fill="#000000">file_name </text>
<text text-anchor="start" x="311.568" y="-1214.9" font-family="Arial" font-size="14.00" fill="#666666">[varchar(255)]</text>
<polygon fill="none" stroke="#000000" points="240,-1173.5 240,-1203.5 450,-1203.5 450,-1173.5 240,-1173.5"/>
<text text-anchor="start" x="247" y="-1184.9" font-family="Arial" font-size="14.00" fill="#000000">score </text>
<text text-anchor="start" x="285.1164" y="-1184.9" font-family="Arial" font-size="14.00" fill="#666666">[tinyint unsigned]</text>
</g>
<!-- submissions&#45;&gt;classes -->
<g id="edge6" class="edge">
<title>submissions:class_id&#45;&gt;classes:id</title>
<path fill="none" stroke="#000000" d="M460.0594,-1247.747C552.4101,-1232.8366 399.7711,-1001.5 509,-1001.5"/>
<polygon fill="#000000" stroke="#000000" points="459.9721,-1247.7534 449.664,-1244.0126 454.986,-1248.1267 450,-1248.5 450,-1248.5 450,-1248.5 454.986,-1248.1267 450.336,-1252.9874 459.9721,-1247.7534 459.9721,-1247.7534"/>
<text text-anchor="start" x="456.8345" y="-1258.5" font-family="Arial" font-size="10.00" fill="#000000">FOREIGN KEY (class_id) REFERENCES classes (id)</text>
</g>
<!-- submissions&#45;&gt;users -->
<g id="edge7" class="edge">
<title>submissions:user_id&#45;&gt;users:id</title>
<path fill="none" stroke="#000000" d="M229.6829,-1278.0757C149.0544,-1271.1658 164.3412,-1181.0382 143,-1095 58.5218,-754.4221 24.7429,-615.4719 192,-307 235.7713,-226.2726 261.1695,-177.5 353,-177.5"/>
<polygon fill="#000000" stroke="#000000" points="230.0084,-1278.089 239.8151,-1282.9962 235.0042,-1278.2945 240,-1278.5 240,-1278.5 240,-1278.5 235.0042,-1278.2945 240.1849,-1274.0038 230.0084,-1278.089 230.0084,-1278.089"/>
<text text-anchor="start" x="6.945" y="-1288.5" font-family="Arial" font-size="10.00" fill="#000000">FOREIGN KEY (user_id) REFERENCES users (id)</text>
</g>
<!-- unread_announcements -->
<g id="node6" class="node">
<title>unread_announcements</title>
<polygon fill="#efefef" stroke="transparent" points="872,-1278.5 872,-1313.5 1177,-1313.5 1177,-1278.5 872,-1278.5"/>
<polygon fill="none" stroke="#000000" points="872,-1278.5 872,-1313.5 1177,-1313.5 1177,-1278.5 872,-1278.5"/>
<text text-anchor="start" x="878.8333" y="-1291.3" font-family="Arial Bold" font-size="18.00" fill="#000000">unread_announcements</text>
<text text-anchor="start" x="1072.9129" y="-1291.3" font-family="Arial" font-size="14.00" fill="#000000"> </text>
<text text-anchor="start" x="1076.8035" y="-1291.3" font-family="Arial" font-size="14.00" fill="#666666">[BASE TABLE]</text>
<polygon fill="none" stroke="#000000" points="872,-1248.5 872,-1278.5 1177,-1278.5 1177,-1248.5 872,-1248.5"/>
<text text-anchor="start" x="879" y="-1259.9" font-family="Arial" font-size="14.00" fill="#000000">announcement_id </text>
<text text-anchor="start" x="994.157" y="-1259.9" font-family="Arial" font-size="14.00" fill="#666666">[char(26)]</text>
<polygon fill="none" stroke="#000000" points="872,-1218.5 872,-1248.5 1177,-1248.5 1177,-1218.5 872,-1218.5"/>
<text text-anchor="start" x="879" y="-1229.9" font-family="Arial" font-size="14.00" fill="#000000">user_id </text>
<text text-anchor="start" x="928.7882" y="-1229.9" font-family="Arial" font-size="14.00" fill="#666666">[char(26)]</text>
<polygon fill="none" stroke="#000000" points="872,-1188.5 872,-1218.5 1177,-1218.5 1177,-1188.5 872,-1188.5"/>
<text text-anchor="start" x="879" y="-1199.9" font-family="Arial" font-size="14.00" fill="#000000">is_deleted </text>
<text text-anchor="start" x="946.69" y="-1199.9" font-family="Arial" font-size="14.00" fill="#666666">[tinyint(1)]</text>
</g>
<!-- unread_announcements&#45;&gt;announcements -->
<g id="edge8" class="edge">
<title>unread_announcements:announcement_id&#45;&gt;announcements:id</title>
<path fill="none" stroke="#000000" d="M861.6026,-1262.3266C823.3643,-1252.7445 845.8778,-1186.6817 872,-1146 918.7439,-1073.2027 1002.2561,-1137.7973 1049,-1065 1071.453,-1030.0325 1090.5556,-971.5 1049,-971.5"/>
<polygon fill="#000000" stroke="#000000" points="862.0631,-1262.3785 871.4953,-1267.9716 867.0315,-1262.9393 872,-1263.5 872,-1263.5 872,-1263.5 867.0315,-1262.9393 872.5047,-1259.0284 862.0631,-1262.3785 862.0631,-1262.3785"/>
<text text-anchor="start" x="546.253" y="-1273.5" font-family="Arial" font-size="10.00" fill="#000000">FOREIGN KEY (announcement_id) REFERENCES announcements (id)</text>
</g>
<!-- unread_announcements&#45;&gt;users -->
<g id="edge9" class="edge">
<title>unread_announcements:user_id&#45;&gt;users:id</title>
<path fill="none" stroke="#000000" d="M1186.4538,-1230.1808C1212.4796,-1208.6089 1194.5288,-1080.1457 1101,-794 987.5615,-446.9417 923.1271,-177.5 558,-177.5"/>
<polygon fill="#000000" stroke="#000000" points="1186.4353,-1230.1872 1175.5092,-1229.2541 1181.7177,-1231.8436 1177,-1233.5 1177,-1233.5 1177,-1233.5 1181.7177,-1231.8436 1178.4908,-1237.7459 1186.4353,-1230.1872 1186.4353,-1230.1872"/>
<text text-anchor="start" x="1183.945" y="-1243.5" font-family="Arial" font-size="10.00" fill="#000000">FOREIGN KEY (user_id) REFERENCES users (id)</text>
</g>
</g>
</svg>
