<?xml version="1.0" encoding="UTF-8" standalone="no"?>
<!DOCTYPE svg PUBLIC "-//W3C//DTD SVG 1.1//EN"
 "http://www.w3.org/Graphics/SVG/1.1/DTD/svg11.dtd">
<!-- Generated by graphviz version 2.40.1 (20161225.0304)
 -->
<!-- Title: submissions Pages: 1 -->
<svg width="710pt" height="592pt"
 viewBox="0.00 0.00 710.00 592.00" xmlns="http://www.w3.org/2000/svg" xmlns:xlink="http://www.w3.org/1999/xlink">
<g id="graph0" class="graph" transform="scale(1 1) rotate(0) translate(4 588)">
<title>submissions</title>
<polygon fill="#ffffff" stroke="transparent" points="-4,4 -4,-588 706,-588 706,4 -4,4"/>
<!-- submissions -->
<g id="node1" class="node">
<title>submissions</title>
<polygon fill="#efefef" stroke="transparent" points="240,-502.5 240,-537.5 450,-537.5 450,-502.5 240,-502.5"/>
<polygon fill="none" stroke="#000000" points="240,-502.5 240,-537.5 450,-537.5 450,-502.5 240,-502.5"/>
<text text-anchor="start" x="246.8704" y="-515.3" font-family="Arial Bold" font-size="18.00" fill="#000000">submissions</text>
<text text-anchor="start" x="345.8758" y="-515.3" font-family="Arial" font-size="14.00" fill="#000000"> </text>
<text text-anchor="start" x="349.7664" y="-515.3" font-family="Arial" font-size="14.00" fill="#666666">[BASE TABLE]</text>
<polygon fill="none" stroke="#000000" points="240,-472.5 240,-502.5 450,-502.5 450,-472.5 240,-472.5"/>
<text text-anchor="start" x="247" y="-483.9" font-family="Arial" font-size="14.00" fill="#000000">user_id </text>
<text text-anchor="start" x="296.7882" y="-483.9" font-family="Arial" font-size="14.00" fill="#666666">[char(26)]</text>
<polygon fill="none" stroke="#000000" points="240,-442.5 240,-472.5 450,-472.5 450,-442.5 240,-442.5"/>
<text text-anchor="start" x="247" y="-453.9" font-family="Arial" font-size="14.00" fill="#000000">class_id </text>
<text text-anchor="start" x="301.4516" y="-453.9" font-family="Arial" font-size="14.00" fill="#666666">[char(26)]</text>
<polygon fill="none" stroke="#000000" points="240,-412.5 240,-442.5 450,-442.5 450,-412.5 240,-412.5"/>
<text text-anchor="start" x="247" y="-423.9" font-family="Arial" font-size="14.00" fill="#000000">file_name </text>
<text text-anchor="start" x="311.568" y="-423.9" font-family="Arial" font-size="14.00" fill="#666666">[varchar(255)]</text>
<polygon fill="none" stroke="#000000" points="240,-382.5 240,-412.5 450,-412.5 450,-382.5 240,-382.5"/>
<text text-anchor="start" x="247" y="-393.9" font-family="Arial" font-size="14.00" fill="#000000">score </text>
<text text-anchor="start" x="285.1164" y="-393.9" font-family="Arial" font-size="14.00" fill="#666666">[tinyint unsigned]</text>
<polygon fill="none" stroke="#000000" stroke-width="3" points="238.5,-381.5 238.5,-539.5 451.5,-539.5 451.5,-381.5 238.5,-381.5"/>
</g>
<!-- users -->
<g id="node2" class="node">
<title>users</title>
<polygon fill="#efefef" stroke="transparent" points="90,-207.5 90,-242.5 295,-242.5 295,-207.5 90,-207.5"/>
<polygon fill="none" stroke="#000000" points="90,-207.5 90,-242.5 295,-242.5 295,-207.5 90,-207.5"/>
<text text-anchor="start" x="121.8708" y="-220.3" font-family="Arial Bold" font-size="18.00" fill="#000000">users</text>
<text text-anchor="start" x="165.8754" y="-220.3" font-family="Arial" font-size="14.00" fill="#000000"> </text>
<text text-anchor="start" x="169.766" y="-220.3" font-family="Arial" font-size="14.00" fill="#666666">[BASE TABLE]</text>
<polygon fill="none" stroke="#000000" points="90,-177.5 90,-207.5 295,-207.5 295,-177.5 90,-177.5"/>
<text text-anchor="start" x="97" y="-188.9" font-family="Arial" font-size="14.00" fill="#000000">id </text>
<text text-anchor="start" x="111.7798" y="-188.9" font-family="Arial" font-size="14.00" fill="#666666">[char(26)]</text>
<polygon fill="none" stroke="#000000" points="90,-147.5 90,-177.5 295,-177.5 295,-147.5 90,-147.5"/>
<text text-anchor="start" x="97" y="-158.9" font-family="Arial" font-size="14.00" fill="#000000">code </text>
<text text-anchor="start" x="131.2384" y="-158.9" font-family="Arial" font-size="14.00" fill="#666666">[char(6)]</text>
<polygon fill="none" stroke="#000000" points="90,-117.5 90,-147.5 295,-147.5 295,-117.5 90,-117.5"/>
<text text-anchor="start" x="97" y="-128.9" font-family="Arial" font-size="14.00" fill="#000000">name </text>
<text text-anchor="start" x="135.899" y="-128.9" font-family="Arial" font-size="14.00" fill="#666666">[varchar(255)]</text>
<polygon fill="none" stroke="#000000" points="90,-87.5 90,-117.5 295,-117.5 295,-87.5 90,-87.5"/>
<text text-anchor="start" x="97" y="-98.9" font-family="Arial" font-size="14.00" fill="#000000">hashed_password </text>
<text text-anchor="start" x="214.4838" y="-98.9" font-family="Arial" font-size="14.00" fill="#666666">[binary(60)]</text>
<polygon fill="none" stroke="#000000" points="90,-57.5 90,-87.5 295,-87.5 295,-57.5 90,-57.5"/>
<text text-anchor="start" x="96.8443" y="-68.9" font-family="Arial" font-size="14.00" fill="#000000">type </text>
<text text-anchor="start" x="127.1907" y="-68.9" font-family="Arial" font-size="14.00" fill="#666666">[enum(&#39;student&#39;,&#39;teacher&#39;)]</text>
</g>
<!-- submissions&#45;&gt;users -->
<g id="edge1" class="edge">
<title>submissions:user_id&#45;&gt;users:id</title>
<path fill="none" stroke="#000000" d="M229.7803,-487.3818C.1826,-481.9216 293.6477,-289.0982 295,-286 311.6238,-247.9144 336.5556,-192.5 295,-192.5"/>
<polygon fill="#000000" stroke="#000000" points="230.0007,-487.3843 239.9479,-491.9997 235.0003,-487.4421 240,-487.5 240,-487.5 240,-487.5 235.0003,-487.4421 240.0521,-483.0003 230.0007,-487.3843 230.0007,-487.3843"/>
<text text-anchor="start" x="6.945" y="-497.5" font-family="Arial" font-size="10.00" fill="#000000">FOREIGN KEY (user_id) REFERENCES users (id)</text>
</g>
<!-- classes -->
<g id="node3" class="node">
<title>classes</title>
<polygon fill="#efefef" stroke="transparent" points="399,-222.5 399,-257.5 596,-257.5 596,-222.5 399,-222.5"/>
<polygon fill="none" stroke="#000000" points="399,-222.5 399,-257.5 596,-257.5 596,-222.5 399,-222.5"/>
<text text-anchor="start" x="418.8698" y="-235.3" font-family="Arial Bold" font-size="18.00" fill="#000000">classes</text>
<text text-anchor="start" x="478.8764" y="-235.3" font-family="Arial" font-size="14.00" fill="#000000"> </text>
<text text-anchor="start" x="482.767" y="-235.3" font-family="Arial" font-size="14.00" fill="#666666">[BASE TABLE]</text>
<polygon fill="none" stroke="#000000" points="399,-192.5 399,-222.5 596,-222.5 596,-192.5 399,-192.5"/>
<text text-anchor="start" x="406" y="-203.9" font-family="Arial" font-size="14.00" fill="#000000">id </text>
<text text-anchor="start" x="420.7798" y="-203.9" font-family="Arial" font-size="14.00" fill="#666666">[char(26)]</text>
<polygon fill="none" stroke="#000000" points="399,-162.5 399,-192.5 596,-192.5 596,-162.5 399,-162.5"/>
<text text-anchor="start" x="406" y="-173.9" font-family="Arial" font-size="14.00" fill="#000000">course_id </text>
<text text-anchor="start" x="470.5708" y="-173.9" font-family="Arial" font-size="14.00" fill="#666666">[char(26)]</text>
<polygon fill="none" stroke="#000000" points="399,-132.5 399,-162.5 596,-162.5 596,-132.5 399,-132.5"/>
<text text-anchor="start" x="406" y="-143.9" font-family="Arial" font-size="14.00" fill="#000000">part </text>
<text text-anchor="start" x="434.007" y="-143.9" font-family="Arial" font-size="14.00" fill="#666666">[tinyint unsigned]</text>
<polygon fill="none" stroke="#000000" points="399,-102.5 399,-132.5 596,-132.5 596,-102.5 399,-102.5"/>
<text text-anchor="start" x="406" y="-113.9" font-family="Arial" font-size="14.00" fill="#000000">title </text>
<text text-anchor="start" x="431.6676" y="-113.9" font-family="Arial" font-size="14.00" fill="#666666">[varchar(255)]</text>
<polygon fill="none" stroke="#000000" points="399,-72.5 399,-102.5 596,-102.5 596,-72.5 399,-72.5"/>
<text text-anchor="start" x="406" y="-83.9" font-family="Arial" font-size="14.00" fill="#000000">description </text>
<text text-anchor="start" x="477.568" y="-83.9" font-family="Arial" font-size="14.00" fill="#666666">[text]</text>
<polygon fill="none" stroke="#000000" points="399,-42.5 399,-72.5 596,-72.5 596,-42.5 399,-42.5"/>
<text text-anchor="start" x="405.7118" y="-53.9" font-family="Arial" font-size="14.00" fill="#000000">submission_closed </text>
<text text-anchor="start" x="527.8436" y="-53.9" font-family="Arial" font-size="14.00" fill="#666666">[tinyint(1)]</text>
</g>
<!-- submissions&#45;&gt;classes -->
<g id="edge2" class="edge">
<title>submissions:class_id&#45;&gt;classes:id</title>
<path fill="none" stroke="#000000" d="M460.1038,-456.4522C499.5103,-447.3671 472.9065,-381.2078 450,-337 437.2356,-312.3657 411.7644,-325.6343 399,-301 379.8818,-264.1034 357.4444,-207.5 399,-207.5"/>
<polygon fill="#000000" stroke="#000000" points="459.9467,-456.4685 449.5358,-453.024 454.9733,-456.9842 450,-457.5 450,-457.5 450,-457.5 454.9733,-456.9842 450.4642,-461.976 459.9467,-456.4685 459.9467,-456.4685"/>
<text text-anchor="start" x="456.8345" y="-467.5" font-family="Arial" font-size="10.00" fill="#000000">FOREIGN KEY (class_id) REFERENCES classes (id)</text>
</g>
</g>
</svg>
