<?xml version="1.0" encoding="UTF-8" standalone="no"?>
<!DOCTYPE svg PUBLIC "-//W3C//DTD SVG 1.1//EN"
 "http://www.w3.org/Graphics/SVG/1.1/DTD/svg11.dtd">
<!-- Generated by graphviz version 2.40.1 (20161225.0304)
 -->
<!-- Title: unread_announcements Pages: 1 -->
<svg width="886pt" height="532pt"
 viewBox="0.00 0.00 886.00 532.00" xmlns="http://www.w3.org/2000/svg" xmlns:xlink="http://www.w3.org/1999/xlink">
<g id="graph0" class="graph" transform="scale(1 1) rotate(0) translate(4 528)">
<title>unread_announcements</title>
<polygon fill="#ffffff" stroke="transparent" points="-4,4 -4,-528 882,-528 882,4 -4,4"/>
<!-- unread_announcements -->
<g id="node1" class="node">
<title>unread_announcements</title>
<polygon fill="#efefef" stroke="transparent" points="333,-442.5 333,-477.5 638,-477.5 638,-442.5 333,-442.5"/>
<polygon fill="none" stroke="#000000" points="333,-442.5 333,-477.5 638,-477.5 638,-442.5 333,-442.5"/>
<text text-anchor="start" x="339.8333" y="-455.3" font-family="Arial Bold" font-size="18.00" fill="#000000">unread_announcements</text>
<text text-anchor="start" x="533.9129" y="-455.3" font-family="Arial" font-size="14.00" fill="#000000"> </text>
<text text-anchor="start" x="537.8035" y="-455.3" font-family="Arial" font-size="14.00" fill="#666666">[BASE TABLE]</text>
<polygon fill="none" stroke="#000000" points="333,-412.5 333,-442.5 638,-442.5 638,-412.5 333,-412.5"/>
<text text-anchor="start" x="340" y="-423.9" font-family="Arial" font-size="14.00" fill="#000000">announcement_id </text>
<text text-anchor="start" x="455.157" y="-423.9" font-family="Arial" font-size="14.00" fill="#666666">[char(26)]</text>
<polygon fill="none" stroke="#000000" points="333,-382.5 333,-412.5 638,-412.5 638,-382.5 333,-382.5"/>
<text text-anchor="start" x="340" y="-393.9" font-family="Arial" font-size="14.00" fill="#000000">user_id </text>
<text text-anchor="start" x="389.7882" y="-393.9" font-family="Arial" font-size="14.00" fill="#666666">[char(26)]</text>
<polygon fill="none" stroke="#000000" points="333,-352.5 333,-382.5 638,-382.5 638,-352.5 333,-352.5"/>
<text text-anchor="start" x="340" y="-363.9" font-family="Arial" font-size="14.00" fill="#000000">is_deleted </text>
<text text-anchor="start" x="407.69" y="-363.9" font-family="Arial" font-size="14.00" fill="#666666">[tinyint(1)]</text>
<polygon fill="none" stroke="#000000" stroke-width="3" points="331,-351.5 331,-479.5 639,-479.5 639,-351.5 331,-351.5"/>
</g>
<!-- announcements -->
<g id="node2" class="node">
<title>announcements</title>
<polygon fill="#efefef" stroke="transparent" points="203,-177.5 203,-212.5 442,-212.5 442,-177.5 203,-177.5"/>
<polygon fill="none" stroke="#000000" points="203,-177.5 203,-212.5 442,-212.5 442,-177.5 203,-177.5"/>
<text text-anchor="start" x="209.848" y="-190.3" font-family="Arial Bold" font-size="18.00" fill="#000000">announcements</text>
<text text-anchor="start" x="337.8982" y="-190.3" font-family="Arial" font-size="14.00" fill="#000000"> </text>
<text text-anchor="start" x="341.7888" y="-190.3" font-family="Arial" font-size="14.00" fill="#666666">[BASE TABLE]</text>
<polygon fill="none" stroke="#000000" points="203,-147.5 203,-177.5 442,-177.5 442,-147.5 203,-147.5"/>
<text text-anchor="start" x="210" y="-158.9" font-family="Arial" font-size="14.00" fill="#000000">id </text>
<text text-anchor="start" x="224.7798" y="-158.9" font-family="Arial" font-size="14.00" fill="#666666">[char(26)]</text>
<polygon fill="none" stroke="#000000" points="203,-117.5 203,-147.5 442,-147.5 442,-117.5 203,-117.5"/>
<text text-anchor="start" x="210" y="-128.9" font-family="Arial" font-size="14.00" fill="#000000">course_id </text>
<text text-anchor="start" x="274.5708" y="-128.9" font-family="Arial" font-size="14.00" fill="#666666">[char(26)]</text>
<polygon fill="none" stroke="#000000" points="203,-87.5 203,-117.5 442,-117.5 442,-87.5 203,-87.5"/>
<text text-anchor="start" x="210" y="-98.9" font-family="Arial" font-size="14.00" fill="#000000">title </text>
<text text-anchor="start" x="235.6676" y="-98.9" font-family="Arial" font-size="14.00" fill="#666666">[varchar(255)]</text>
<polygon fill="none" stroke="#000000" points="203,-57.5 203,-87.5 442,-87.5 442,-57.5 203,-57.5"/>
<text text-anchor="start" x="210" y="-68.9" font-family="Arial" font-size="14.00" fill="#000000">message </text>
<text text-anchor="start" x="270.6816" y="-68.9" font-family="Arial" font-size="14.00" fill="#666666">[text]</text>
</g>
<!-- unread_announcements&#45;&gt;announcements -->
<g id="edge1" class="edge">
<title>unread_announcements:announcement_id&#45;&gt;announcements:id</title>
<path fill="none" stroke="#000000" d="M322.8395,-426.4196C282.9527,-417.058 306.2752,-349.0098 333,-307 361.7082,-261.8726 413.2918,-301.1274 442,-256 464.305,-220.9379 483.5556,-162.5 442,-162.5"/>
<polygon fill="#000000" stroke="#000000" points="323.0561,-426.4426 332.5242,-431.9748 328.028,-426.9713 333,-427.5 333,-427.5 333,-427.5 328.028,-426.9713 333.4758,-423.0252 323.0561,-426.4426 323.0561,-426.4426"/>
<text text-anchor="start" x="7.253" y="-437.5" font-family="Arial" font-size="10.00" fill="#000000">FOREIGN KEY (announcement_id) REFERENCES announcements (id)</text>
</g>
<!-- users -->
<g id="node3" class="node">
<title>users</title>
<polygon fill="#efefef" stroke="transparent" points="546,-192.5 546,-227.5 751,-227.5 751,-192.5 546,-192.5"/>
<polygon fill="none" stroke="#000000" points="546,-192.5 546,-227.5 751,-227.5 751,-192.5 546,-192.5"/>
<text text-anchor="start" x="577.8708" y="-205.3" font-family="Arial Bold" font-size="18.00" fill="#000000">users</text>
<text text-anchor="start" x="621.8754" y="-205.3" font-family="Arial" font-size="14.00" fill="#000000"> </text>
<text text-anchor="start" x="625.766" y="-205.3" font-family="Arial" font-size="14.00" fill="#666666">[BASE TABLE]</text>
<polygon fill="none" stroke="#000000" points="546,-162.5 546,-192.5 751,-192.5 751,-162.5 546,-162.5"/>
<text text-anchor="start" x="553" y="-173.9" font-family="Arial" font-size="14.00" fill="#000000">id </text>
<text text-anchor="start" x="567.7798" y="-173.9" font-family="Arial" font-size="14.00" fill="#666666">[char(26)]</text>
<polygon fill="none" stroke="#000000" points="546,-132.5 546,-162.5 751,-162.5 751,-132.5 546,-132.5"/>
<text text-anchor="start" x="553" y="-143.9" font-family="Arial" font-size="14.00" fill="#000000">code </text>
<text text-anchor="start" x="587.2384" y="-143.9" font-family="Arial" font-size="14.00" fill="#666666">[char(6)]</text>
<polygon fill="none" stroke="#000000" points="546,-102.5 546,-132.5 751,-132.5 751,-102.5 546,-102.5"/>
<text text-anchor="start" x="553" y="-113.9" font-family="Arial" font-size="14.00" fill="#000000">name </text>
<text text-anchor="start" x="591.899" y="-113.9" font-family="Arial" font-size="14.00" fill="#666666">[varchar(255)]</text>
<polygon fill="none" stroke="#000000" points="546,-72.5 546,-102.5 751,-102.5 751,-72.5 546,-72.5"/>
<text text-anchor="start" x="553" y="-83.9" font-family="Arial" font-size="14.00" fill="#000000">hashed_password </text>
<text text-anchor="start" x="670.4838" y="-83.9" font-family="Arial" font-size="14.00" fill="#666666">[binary(60)]</text>
<polygon fill="none" stroke="#000000" points="546,-42.5 546,-72.5 751,-72.5 751,-42.5 546,-42.5"/>
<text text-anchor="start" x="552.8443" y="-53.9" font-family="Arial" font-size="14.00" fill="#000000">type </text>
<text text-anchor="start" x="583.1907" y="-53.9" font-family="Arial" font-size="14.00" fill="#666666">[enum(&#39;student&#39;,&#39;teacher&#39;)]</text>
</g>
<!-- unread_announcements&#45;&gt;users -->
<g id="edge2" class="edge">
<title>unread_announcements:user_id&#45;&gt;users:id</title>
<path fill="none" stroke="#000000" d="M648.1801,-395.937C674.7461,-386.5423 658.4605,-336.9774 638,-307 613.2475,-270.7341 570.7525,-307.2659 546,-271 522.5736,-236.677 504.4444,-177.5 546,-177.5"/>
<polygon fill="#000000" stroke="#000000" points="647.8842,-395.9824 637.3171,-393.0521 642.9421,-396.7412 638,-397.5 638,-397.5 638,-397.5 642.9421,-396.7412 638.6829,-401.9479 647.8842,-395.9824 647.8842,-395.9824"/>
<text text-anchor="start" x="644.945" y="-407.5" font-family="Arial" font-size="10.00" fill="#000000">FOREIGN KEY (user_id) REFERENCES users (id)</text>
</g>
</g>
</svg>
