<?xml version="1.0" encoding="UTF-8" standalone="no"?>
<!DOCTYPE svg PUBLIC "-//W3C//DTD SVG 1.1//EN"
 "http://www.w3.org/Graphics/SVG/1.1/DTD/svg11.dtd">
<!-- Generated by graphviz version 2.40.1 (20161225.0304)
 -->
<!-- Title: users Pages: 1 -->
<svg width="1588pt" height="772pt"
 viewBox="0.00 0.00 1587.50 772.00" xmlns="http://www.w3.org/2000/svg" xmlns:xlink="http://www.w3.org/1999/xlink">
<g id="graph0" class="graph" transform="scale(1 1) rotate(0) translate(4 768)">
<title>users</title>
<polygon fill="#ffffff" stroke="transparent" points="-4,4 -4,-768 1583.5,-768 1583.5,4 -4,4"/>
<!-- users -->
<g id="node1" class="node">
<title>users</title>
<polygon fill="#efefef" stroke="transparent" points="762,-195.5 762,-230.5 967,-230.5 967,-195.5 762,-195.5"/>
<polygon fill="none" stroke="#000000" points="762,-195.5 762,-230.5 967,-230.5 967,-195.5 762,-195.5"/>
<text text-anchor="start" x="793.8708" y="-208.3" font-family="Arial Bold" font-size="18.00" fill="#000000">users</text>
<text text-anchor="start" x="837.8754" y="-208.3" font-family="Arial" font-size="14.00" fill="#000000"> </text>
<text text-anchor="start" x="841.766" y="-208.3" font-family="Arial" font-size="14.00" fill="#666666">[BASE TABLE]</text>
<polygon fill="none" stroke="#000000" points="762,-165.5 762,-195.5 967,-195.5 967,-165.5 762,-165.5"/>
<text text-anchor="start" x="769" y="-176.9" font-family="Arial" font-size="14.00" fill="#000000">id </text>
<text text-anchor="start" x="783.7798" y="-176.9" font-family="Arial" font-size="14.00" fill="#666666">[char(26)]</text>
<polygon fill="none" stroke="#000000" points="762,-135.5 762,-165.5 967,-165.5 967,-135.5 762,-135.5"/>
<text text-anchor="start" x="769" y="-146.9" font-family="Arial" font-size="14.00" fill="#000000">code </text>
<text text-anchor="start" x="803.2384" y="-146.9" font-family="Arial" font-size="14.00" fill="#666666">[char(6)]</text>
<polygon fill="none" stroke="#000000" points="762,-105.5 762,-135.5 967,-135.5 967,-105.5 762,-105.5"/>
<text text-anchor="start" x="769" y="-116.9" font-family="Arial" font-size="14.00" fill="#000000">name </text>
<text text-anchor="start" x="807.899" y="-116.9" font-family="Arial" font-size="14.00" fill="#666666">[varchar(255)]</text>
<polygon fill="none" stroke="#000000" points="762,-75.5 762,-105.5 967,-105.5 967,-75.5 762,-75.5"/>
<text text-anchor="start" x="769" y="-86.9" font-family="Arial" font-size="14.00" fill="#000000">hashed_password </text>
<text text-anchor="start" x="886.4838" y="-86.9" font-family="Arial" font-size="14.00" fill="#666666">[binary(60)]</text>
<polygon fill="none" stroke="#000000" points="762,-45.5 762,-75.5 967,-75.5 967,-45.5 762,-45.5"/>
<text text-anchor="start" x="768.8443" y="-56.9" font-family="Arial" font-size="14.00" fill="#000000">type </text>
<text text-anchor="start" x="799.1907" y="-56.9" font-family="Arial" font-size="14.00" fill="#666666">[enum(&#39;student&#39;,&#39;teacher&#39;)]</text>
<polygon fill="none" stroke="#000000" stroke-width="3" points="760,-44.5 760,-232.5 968,-232.5 968,-44.5 760,-44.5"/>
</g>
<!-- courses -->
<g id="node2" class="node">
<title>courses</title>
<polygon fill="#efefef" stroke="transparent" points="43,-685.5 43,-720.5 499,-720.5 499,-685.5 43,-685.5"/>
<polygon fill="none" stroke="#000000" points="43,-685.5 43,-720.5 499,-720.5 499,-685.5 43,-685.5"/>
<text text-anchor="start" x="190.8677" y="-698.3" font-family="Arial Bold" font-size="18.00" fill="#000000">courses</text>
<text text-anchor="start" x="253.8785" y="-698.3" font-family="Arial" font-size="14.00" fill="#000000"> </text>
<text text-anchor="start" x="257.7691" y="-698.3" font-family="Arial" font-size="14.00" fill="#666666">[BASE TABLE]</text>
<polygon fill="none" stroke="#000000" points="43,-655.5 43,-685.5 499,-685.5 499,-655.5 43,-655.5"/>
<text text-anchor="start" x="50" y="-666.9" font-family="Arial" font-size="14.00" fill="#000000">id </text>
<text text-anchor="start" x="64.7798" y="-666.9" font-family="Arial" font-size="14.00" fill="#666666">[char(26)]</text>
<polygon fill="none" stroke="#000000" points="43,-625.5 43,-655.5 499,-655.5 499,-625.5 43,-625.5"/>
<text text-anchor="start" x="50" y="-636.9" font-family="Arial" font-size="14.00" fill="#000000">code </text>
<text text-anchor="start" x="84.2384" y="-636.9" font-family="Arial" font-size="14.00" fill="#666666">[varchar(255)]</text>
<polygon fill="none" stroke="#000000" points="43,-595.5 43,-625.5 499,-625.5 499,-595.5 43,-595.5"/>
<text text-anchor="start" x="50" y="-606.9" font-family="Arial" font-size="14.00" fill="#000000">type </text>
<text text-anchor="start" x="80.3464" y="-606.9" font-family="Arial" font-size="14.00" fill="#666666">[enum(&#39;liberal&#45;arts&#39;,&#39;major&#45;subjects&#39;)]</text>
<polygon fill="none" stroke="#000000" points="43,-565.5 43,-595.5 499,-595.5 499,-565.5 43,-565.5"/>
<text text-anchor="start" x="50" y="-576.9" font-family="Arial" font-size="14.00" fill="#000000">name </text>
<text text-anchor="start" x="88.899" y="-576.9" font-family="Arial" font-size="14.00" fill="#666666">[varchar(255)]</text>
<polygon fill="none" stroke="#000000" points="43,-535.5 43,-565.5 499,-565.5 499,-535.5 43,-535.5"/>
<text text-anchor="start" x="50" y="-546.9" font-family="Arial" font-size="14.00" fill="#000000">description </text>
<text text-anchor="start" x="121.568" y="-546.9" font-family="Arial" font-size="14.00" fill="#666666">[text]</text>
<polygon fill="none" stroke="#000000" points="43,-505.5 43,-535.5 499,-535.5 499,-505.5 43,-505.5"/>
<text text-anchor="start" x="50" y="-516.9" font-family="Arial" font-size="14.00" fill="#000000">credit </text>
<text text-anchor="start" x="88.1136" y="-516.9" font-family="Arial" font-size="14.00" fill="#666666">[tinyint unsigned]</text>
<polygon fill="none" stroke="#000000" points="43,-475.5 43,-505.5 499,-505.5 499,-475.5 43,-475.5"/>
<text text-anchor="start" x="50" y="-486.9" font-family="Arial" font-size="14.00" fill="#000000">period </text>
<text text-anchor="start" x="92.7882" y="-486.9" font-family="Arial" font-size="14.00" fill="#666666">[tinyint unsigned]</text>
<polygon fill="none" stroke="#000000" points="43,-445.5 43,-475.5 499,-475.5 499,-445.5 43,-445.5"/>
<text text-anchor="start" x="49.758" y="-456.9" font-family="Arial" font-size="14.00" fill="#000000">day_of_week </text>
<text text-anchor="start" x="136.124" y="-456.9" font-family="Arial" font-size="14.00" fill="#666666">[enum(&#39;monday&#39;,&#39;tuesday&#39;,&#39;wednesday&#39;,&#39;thursday&#39;,&#39;friday&#39;)]</text>
<polygon fill="none" stroke="#000000" points="43,-415.5 43,-445.5 499,-445.5 499,-415.5 43,-415.5"/>
<text text-anchor="start" x="50" y="-426.9" font-family="Arial" font-size="14.00" fill="#000000">teacher_id </text>
<text text-anchor="start" x="119.244" y="-426.9" font-family="Arial" font-size="14.00" fill="#666666">[char(26)]</text>
<polygon fill="none" stroke="#000000" points="43,-385.5 43,-415.5 499,-415.5 499,-385.5 43,-385.5"/>
<text text-anchor="start" x="50" y="-396.9" font-family="Arial" font-size="14.00" fill="#000000">keywords </text>
<text text-anchor="start" x="113.0056" y="-396.9" font-family="Arial" font-size="14.00" fill="#666666">[text]</text>
<polygon fill="none" stroke="#000000" points="43,-355.5 43,-385.5 499,-385.5 499,-355.5 43,-355.5"/>
<text text-anchor="start" x="50" y="-366.9" font-family="Arial" font-size="14.00" fill="#000000">status </text>
<text text-anchor="start" x="91.237" y="-366.9" font-family="Arial" font-size="14.00" fill="#666666">[enum(&#39;registration&#39;,&#39;in&#45;progress&#39;,&#39;closed&#39;)]</text>
</g>
<!-- courses&#45;&gt;users -->
<g id="edge1" class="edge">
<title>courses:teacher_id&#45;&gt;users:id</title>
<path fill="none" stroke="#000000" d="M509.112,-429.5477C550.8182,-420.7671 516.1117,-353.3154 551,-313 623.4621,-229.2658 651.2653,-180.5 762,-180.5"/>
<polygon fill="#000000" stroke="#000000" points="508.9559,-429.5623 498.578,-426.0198 503.978,-430.0312 499,-430.5 499,-430.5 499,-430.5 503.978,-430.0312 499.422,-434.9802 508.9559,-429.5623 508.9559,-429.5623"/>
<text text-anchor="start" x="505.9965" y="-414.5" font-family="Arial" font-size="10.00" fill="#000000">FOREIGN KEY (teacher_id) REFERENCES users (id)</text>
</g>
<!-- registrations -->
<g id="node3" class="node">
<title>registrations</title>
<polygon fill="#efefef" stroke="transparent" points="604,-550.5 604,-585.5 813,-585.5 813,-550.5 604,-550.5"/>
<polygon fill="none" stroke="#000000" points="604,-550.5 604,-585.5 813,-585.5 813,-550.5 604,-550.5"/>
<text text-anchor="start" x="610.869" y="-563.3" font-family="Arial Bold" font-size="18.00" fill="#000000">registrations</text>
<text text-anchor="start" x="708.8772" y="-563.3" font-family="Arial" font-size="14.00" fill="#000000"> </text>
<text text-anchor="start" x="712.7678" y="-563.3" font-family="Arial" font-size="14.00" fill="#666666">[BASE TABLE]</text>
<polygon fill="none" stroke="#000000" points="604,-520.5 604,-550.5 813,-550.5 813,-520.5 604,-520.5"/>
<text text-anchor="start" x="611" y="-531.9" font-family="Arial" font-size="14.00" fill="#000000">course_id </text>
<text text-anchor="start" x="675.5708" y="-531.9" font-family="Arial" font-size="14.00" fill="#666666">[char(26)]</text>
<polygon fill="none" stroke="#000000" points="604,-490.5 604,-520.5 813,-520.5 813,-490.5 604,-490.5"/>
<text text-anchor="start" x="611" y="-501.9" font-family="Arial" font-size="14.00" fill="#000000">user_id </text>
<text text-anchor="start" x="660.7882" y="-501.9" font-family="Arial" font-size="14.00" fill="#666666">[char(26)]</text>
</g>
<!-- registrations&#45;&gt;users -->
<g id="edge2" class="edge">
<title>registrations:user_id&#45;&gt;users:id</title>
<path fill="none" stroke="#000000" d="M823.2063,-504.8821C942.0882,-489.2056 619.5003,-180.5 762,-180.5"/>
<polygon fill="#000000" stroke="#000000" points="822.9817,-504.8956 812.728,-501.0082 817.9909,-505.1978 813,-505.5 813,-505.5 813,-505.5 817.9909,-505.1978 813.272,-509.9918 822.9817,-504.8956 822.9817,-504.8956"/>
<text text-anchor="start" x="819.945" y="-515.5" font-family="Arial" font-size="10.00" fill="#000000">FOREIGN KEY (user_id) REFERENCES users (id)</text>
</g>
<!-- submissions -->
<g id="node4" class="node">
<title>submissions</title>
<polygon fill="#efefef" stroke="transparent" points="917,-580.5 917,-615.5 1127,-615.5 1127,-580.5 917,-580.5"/>
<polygon fill="none" stroke="#000000" points="917,-580.5 917,-615.5 1127,-615.5 1127,-580.5 917,-580.5"/>
<text text-anchor="start" x="923.8704" y="-593.3" font-family="Arial Bold" font-size="18.00" fill="#000000">submissions</text>
<text text-anchor="start" x="1022.8758" y="-593.3" font-family="Arial" font-size="14.00" fill="#000000"> </text>
<text text-anchor="start" x="1026.7664" y="-593.3" font-family="Arial" font-size="14.00" fill="#666666">[BASE TABLE]</text>
<polygon fill="none" stroke="#000000" points="917,-550.5 917,-580.5 1127,-580.5 1127,-550.5 917,-550.5"/>
<text text-anchor="start" x="924" y="-561.9" font-family="Arial" font-size="14.00" fill="#000000">user_id </text>
<text text-anchor="start" x="973.7882" y="-561.9" font-family="Arial" font-size="14.00" fill="#666666">[char(26)]</text>
<polygon fill="none" stroke="#000000" points="917,-520.5 917,-550.5 1127,-550.5 1127,-520.5 917,-520.5"/>
<text text-anchor="start" x="924" y="-531.9" font-family="Arial" font-size="14.00" fill="#000000">class_id </text>
<text text-anchor="start" x="978.4516" y="-531.9" font-family="Arial" font-size="14.00" fill="#666666">[char(26)]</text>
<polygon fill="none" stroke="#000000" points="917,-490.5 917,-520.5 1127,-520.5 1127,-490.5 917,-490.5"/>
<text text-anchor="start" x="924" y="-501.9" font-family="Arial" font-size="14.00" fill="#000000">file_name </text>
<text text-anchor="start" x="988.568" y="-501.9" font-family="Arial" font-size="14.00" fill="#666666">[varchar(255)]</text>
<polygon fill="none" stroke="#000000" points="917,-460.5 917,-490.5 1127,-490.5 1127,-460.5 917,-460.5"/>
<text text-anchor="start" x="924" y="-471.9" font-family="Arial" font-size="14.00" fill="#000000">score </text>
<text text-anchor="start" x="962.1164" y="-471.9" font-family="Arial" font-size="14.00" fill="#666666">[tinyint unsigned]</text>
</g>
<!-- submissions&#45;&gt;users -->
<g id="edge3" class="edge">
<title>submissions:user_id&#45;&gt;users:id</title>
<path fill="none" stroke="#000000" d="M906.6535,-564.9745C761.1667,-549.1347 1135.841,-180.5 967,-180.5"/>
<polygon fill="#000000" stroke="#000000" points="907.0129,-564.9927 916.7717,-569.9942 912.0064,-565.2463 917,-565.5 917,-565.5 917,-565.5 912.0064,-565.2463 917.2283,-561.0058 907.0129,-564.9927 907.0129,-564.9927"/>
<text text-anchor="start" x="863.945" y="-549.5" font-family="Arial" font-size="10.00" fill="#000000">FOREIGN KEY (user_id) REFERENCES users (id)</text>
</g>
<!-- unread_announcements -->
<g id="node5" class="node">
<title>unread_announcements</title>
<polygon fill="#efefef" stroke="transparent" points="1232,-565.5 1232,-600.5 1537,-600.5 1537,-565.5 1232,-565.5"/>
<polygon fill="none" stroke="#000000" points="1232,-565.5 1232,-600.5 1537,-600.5 1537,-565.5 1232,-565.5"/>
<text text-anchor="start" x="1238.8333" y="-578.3" font-family="Arial Bold" font-size="18.00" fill="#000000">unread_announcements</text>
<text text-anchor="start" x="1432.9129" y="-578.3" font-family="Arial" font-size="14.00" fill="#000000"> </text>
<text text-anchor="start" x="1436.8035" y="-578.3" font-family="Arial" font-size="14.00" fill="#666666">[BASE TABLE]</text>
<polygon fill="none" stroke="#000000" points="1232,-535.5 1232,-565.5 1537,-565.5 1537,-535.5 1232,-535.5"/>
<text text-anchor="start" x="1239" y="-546.9" font-family="Arial" font-size="14.00" fill="#000000">announcement_id </text>
<text text-anchor="start" x="1354.157" y="-546.9" font-family="Arial" font-size="14.00" fill="#666666">[char(26)]</text>
<polygon fill="none" stroke="#000000" points="1232,-505.5 1232,-535.5 1537,-535.5 1537,-505.5 1232,-505.5"/>
<text text-anchor="start" x="1239" y="-516.9" font-family="Arial" font-size="14.00" fill="#000000">user_id </text>
<text text-anchor="start" x="1288.7882" y="-516.9" font-family="Arial" font-size="14.00" fill="#666666">[char(26)]</text>
<polygon fill="none" stroke="#000000" points="1232,-475.5 1232,-505.5 1537,-505.5 1537,-475.5 1232,-475.5"/>
<text text-anchor="start" x="1239" y="-486.9" font-family="Arial" font-size="14.00" fill="#000000">is_deleted </text>
<text text-anchor="start" x="1306.69" y="-486.9" font-family="Arial" font-size="14.00" fill="#666666">[tinyint(1)]</text>
</g>
<!-- unread_announcements&#45;&gt;users -->
<g id="edge4" class="edge">
<title>unread_announcements:user_id&#45;&gt;users:id</title>
<path fill="none" stroke="#000000" d="M1221.7109,-519.9129C1144.2646,-510.3748 1232.97,-386.8449 1179,-313 1113.4374,-223.2934 1078.1113,-180.5 967,-180.5"/>
<polygon fill="#000000" stroke="#000000" points="1222.0162,-519.9302 1231.7436,-524.9927 1227.0081,-520.2151 1232,-520.5 1232,-520.5 1232,-520.5 1227.0081,-520.2151 1232.2564,-516.0073 1222.0162,-519.9302 1222.0162,-519.9302"/>
<text text-anchor="start" x="1178.945" y="-504.5" font-family="Arial" font-size="10.00" fill="#000000">FOREIGN KEY (user_id) REFERENCES users (id)</text>
</g>
</g>
</svg>
